<svg width="1920" height="424" viewBox="0 0 1920 424" fill="none" xmlns="http://www.w3.org/2000/svg">
<g clip-path="url(#clip0_2221_22820)">
<rect width="1920" height="424" fill="#FAFAFA"/>
<circle cx="1655" cy="116" r="278.5" stroke="#D9D9D9" stroke-opacity="0.6" stroke-width="5" stroke-linecap="square" stroke-dasharray="8 20"/>
<circle cx="362.5" cy="315.5" r="404" stroke="#D9D9D9" stroke-opacity="0.6" stroke-width="5" stroke-linecap="square" stroke-dasharray="8 20"/>
<path d="M413.822 129.439C417.276 128.179 419.214 128.064 422.667 129.439V161.615C419.211 162.719 417.277 162.799 413.822 161.615V129.439Z" fill="black"/>
<path d="M409.409 152.587H391.72C391.879 154.021 392.262 155.089 392.869 155.792C393.722 156.801 394.835 157.306 396.208 157.306C397.075 157.306 397.898 157.087 398.679 156.648C399.156 156.37 399.669 155.88 400.218 155.177C401.251 153.856 408.65 154.197 408.91 155.989C407.581 158.33 405.977 160.013 404.098 161.037C402.219 162.047 399.524 162.552 396.012 162.552C392.963 162.552 390.564 162.12 388.816 161.257C387.067 160.379 385.615 158.996 384.459 157.109C383.317 155.207 382.746 152.975 382.746 150.415C382.746 146.771 383.895 143.823 386.193 141.569C388.505 139.316 391.692 138.189 395.752 138.189C399.047 138.189 401.649 138.694 403.556 139.704C405.464 140.713 406.916 142.177 407.913 144.093C408.91 146.01 409.409 148.505 409.409 151.578V152.587ZM400.435 148.308C400.261 146.581 399.799 145.345 399.047 144.598C398.31 143.852 397.335 143.479 396.121 143.479C394.719 143.479 393.599 144.042 392.761 145.169C392.226 145.871 391.887 146.917 391.742 148.308H400.435Z" fill="black"/>
<path d="M353.15 150.436C353.15 146.881 354.335 143.954 356.705 141.657C359.075 139.345 362.276 138.189 366.308 138.189C370.918 138.189 374.401 139.543 376.757 142.25C378.65 144.43 379.596 147.115 379.596 150.305C379.596 153.89 378.419 156.831 376.063 159.128C373.722 161.411 370.478 162.552 366.33 162.552C362.631 162.552 359.639 161.601 357.356 159.699C354.552 157.343 353.15 154.255 353.15 150.436ZM361.995 150.415C361.995 152.492 362.407 154.029 363.23 155.024C364.068 156.019 365.116 156.516 366.373 156.516C367.645 156.516 368.686 156.026 369.495 155.046C370.319 154.065 370.731 152.492 370.731 150.327C370.731 148.308 370.319 146.808 369.495 145.827C368.671 144.832 367.652 144.335 366.438 144.335C365.152 144.335 364.09 144.84 363.252 145.849C362.414 146.844 361.995 148.366 361.995 150.415Z" fill="black"/>
<path d="M348.951 161.339C344.627 162.578 342.231 162.666 338.762 161.339L321.334 132.214C325.45 129.818 327.685 129.57 331.457 132.214L348.951 161.339ZM321.334 161.339V134.98L329.68 148.829V161.339C326.744 162.564 324.959 162.721 321.334 161.339ZM348.951 132.214V158.574L340.605 144.659V132.214C344.041 130.073 345.864 130.04 348.951 132.214Z" fill="black"/>
<path d="M317.84 219.26H328.14V220.62H317.84V219.26ZM320.5 207.7L322.02 208.06C320.4 212.9 317.6 216.48 313.76 218.7C313.54 218.4 312.96 217.8 312.62 217.52C316.44 215.52 319.1 212.16 320.5 207.7ZM317.14 214.14H329.2V221.52H327.68V215.5H318.58V221.56H317.14V214.14ZM313.08 210.04H330.94V211.44H313.08V210.04ZM313.24 205.14H330.82V206.54H313.24V205.14ZM317.72 203.22H319.2V208.54H317.72V203.22ZM324.76 203.22H326.26V208.54H324.76V203.22ZM333.26 205.8H350.78V207.22H333.26V205.8ZM338.14 212.94H347.54V214.24H338.14V212.94ZM337.08 209.54H347.3V210.88H338.56V221.6H337.08V209.54ZM346.96 209.54H348.42V219.74C348.42 220.62 348.24 221.08 347.56 221.32C346.92 221.56 345.8 221.56 344.08 221.56C344.02 221.14 343.8 220.52 343.58 220.1C344.92 220.16 346.14 220.14 346.5 220.14C346.84 220.12 346.96 220.02 346.96 219.72V209.54ZM339.8 203.2L341.32 203.56C339.96 207.96 337.56 212.4 333.74 215.08C333.54 214.74 333.08 214.22 332.78 213.92C336.36 211.46 338.72 207.22 339.8 203.2ZM338.14 216.32H347.54V217.62H338.14V216.32ZM364.74 206.92H371.2V208.32H364.74V206.92ZM365.14 203.2L366.6 203.42C366.02 207.22 365.06 210.9 363.56 213.28C363.34 213.02 362.76 212.48 362.42 212.24C363.84 210.06 364.68 206.66 365.14 203.2ZM368.68 207.66L370.1 207.8C369.28 214.44 367.52 218.86 363.18 221.66C363.04 221.34 362.6 220.72 362.34 220.42C366.4 218.02 368 213.76 368.68 207.66ZM365.48 208.18C366.24 213.66 367.9 218.42 371.3 220.44C370.96 220.72 370.5 221.26 370.26 221.62C366.72 219.3 365.06 214.36 364.2 208.38L365.48 208.18ZM357.42 203.2H358.76V213.7H357.42V203.2ZM355.44 205.48V208.82H360.9V205.48H355.44ZM354.16 204.42H362.22V209.88H354.16V204.42ZM354.96 211.82V213.12H361.36V211.82H354.96ZM353.66 210.8H362.7V214.14H353.66V210.8ZM352.8 215.42C355.5 215.42 359.7 215.36 363.76 215.28L363.7 216.42C359.72 216.52 355.58 216.58 352.84 216.62L352.8 215.42ZM356.8 213.82L358.08 214.12C357.24 215.74 356.1 217.74 355.3 219.04L354.06 218.68C354.88 217.4 356.02 215.36 356.8 213.82ZM355.2 218.32L355.94 217.42C358.28 218.22 360.74 219.36 362.2 220.34L361.24 221.28C359.86 220.3 357.52 219.16 355.2 218.32ZM360.4 215.9L361.7 216.12C360.9 219.38 358.42 220.9 353.86 221.68C353.78 221.3 353.52 220.8 353.28 220.5C357.42 220 359.66 218.72 360.4 215.9ZM352.78 206.56H354.7V206.64H361.6V206.56H363.64V207.72H361.6V207.64H354.7V207.72H352.78V206.56ZM383.78 203.44H385.28V208H383.78V203.44ZM378.56 207.14H390.78V208.58H378.56V207.14ZM380.22 210.14L381.56 209.92C382.32 212.58 383.02 216 383.18 217.98L381.7 218.3C381.56 216.3 380.94 212.82 380.22 210.14ZM387.52 209.74L389.12 210.02C388.38 213.22 387.22 217.32 386.28 219.8L384.94 219.48C385.88 216.96 386.98 212.72 387.52 209.74ZM378.06 219.24H391.28V220.68H378.06V219.24ZM377.52 203.26L378.94 203.72C377.58 207.08 375.44 210.44 373.24 212.64C373.08 212.3 372.66 211.5 372.38 211.14C374.4 209.26 376.36 206.28 377.52 203.26ZM375.44 208.42L376.86 207L376.88 207.02V221.56H375.44V208.42ZM395.24 209.76H411.02V211.02H395.24V209.76ZM394.18 204.88H410.02V206.1H394.18V204.88ZM398.84 213.08H409.72V214.3H398.84V213.08ZM398.4 216.3H409.24V217.52H398.4V216.3ZM396.6 219.92H410.86V221.2H396.6V219.92ZM401.2 203.22H402.7V205.74H401.2V203.22ZM402.96 211.46H404.44V220.44H402.96V211.46ZM394.46 209.76H395.94V213C395.94 215.54 395.6 219.24 393.82 221.78C393.58 221.48 392.96 221 392.64 220.82C394.26 218.48 394.46 215.26 394.46 212.98V209.76ZM399.06 211.4L400.4 211.72C399.78 213.42 398.76 215.08 397.68 216.16C397.44 215.94 396.88 215.56 396.54 215.38C397.6 214.38 398.52 212.9 399.06 211.4ZM397.18 206.8L398.14 206C401.28 206.76 405.32 208.12 407.58 209.08L406.64 209.94C404.44 208.94 400.42 207.56 397.18 206.8ZM405.82 205.72L406.9 206.3C404.52 207.96 400.34 209.22 396.86 209.9C396.74 209.64 396.46 209.18 396.26 208.94C399.6 208.34 403.86 207.16 405.82 205.72ZM418.02 205.5V209.3H426.02V205.5H418.02ZM416.56 204.06H427.54V210.74H416.56V204.06ZM413.66 212.86H420.78V221.44H419.28V214.3H415.08V221.6H413.66V212.86ZM422.96 212.86H430.48V221.48H428.98V214.3H424.4V221.6H422.96V212.86ZM414.3 219.08H419.88V220.52H414.3V219.08ZM423.7 219.08H429.64V220.52H423.7V219.08ZM441.92 203.84H443.36V206.28C443.36 208.02 442.92 210.14 440.78 211.56C440.58 211.28 440 210.76 439.7 210.56C441.62 209.32 441.92 207.66 441.92 206.26V203.84ZM446.8 203.84H448.22V208.76C448.22 209.2 448.28 209.28 448.6 209.28C448.76 209.28 449.42 209.28 449.62 209.28C449.96 209.28 450.04 209.02 450.08 207.1C450.36 207.32 450.96 207.54 451.34 207.64C451.22 209.98 450.86 210.6 449.78 210.6C449.52 210.6 448.64 210.6 448.38 210.6C447.16 210.6 446.8 210.2 446.8 208.78V203.84ZM443 213.28C444.38 216.72 447.36 219.28 451.38 220.3C451.04 220.62 450.6 221.22 450.4 221.6C446.24 220.38 443.26 217.62 441.66 213.7L443 213.28ZM448.6 211.88H448.9L449.16 211.82L450.12 212.2C448.7 217.44 444.94 220.32 440.56 221.6C440.4 221.24 440.02 220.6 439.74 220.28C443.78 219.26 447.4 216.56 448.6 212.12V211.88ZM440.62 211.88H449.18V213.24H440.62V211.88ZM442.52 203.84H447.52V205.18H442.52V203.84ZM433.7 209.26H439.66V210.46H433.7V209.26ZM433.8 203.92H439.62V205.12H433.8V203.92ZM433.7 211.94H439.66V213.14H433.7V211.94ZM432.76 206.54H440.36V207.78H432.76V206.54ZM434.42 214.64H439.66V220.48H434.42V219.22H438.34V215.88H434.42V214.64ZM433.68 214.64H434.98V221.4H433.68V214.64ZM460.68 210.06H471.42V211.54H460.68V210.06ZM465.38 203.26H466.9V221.6H465.38V203.26ZM453.7 209.26H459.94V210.46H453.7V209.26ZM453.82 203.92H459.96V205.12H453.82V203.92ZM453.7 211.94H459.94V213.14H453.7V211.94ZM452.76 206.54H460.72V207.78H452.76V206.54ZM454.4 214.64H459.88V220.48H454.4V219.22H458.54V215.88H454.4V214.64ZM453.68 214.64H455.02V221.4H453.68V214.64ZM483.16 217.62H489.36V219.06H483.16V217.62ZM482.6 205.08H490.06V220.58H488.54V206.5H484.06V220.72H482.6V205.08ZM476.92 204.9H478.42V221.58H476.92V204.9ZM473 209.12H481.92V210.52H473V209.12ZM476.84 209.62L477.9 210C476.96 213.1 475.12 216.8 473.32 218.72C473.16 218.3 472.78 217.7 472.52 217.34C474.2 215.62 476.04 212.38 476.84 209.62ZM480.76 203.4L481.78 204.56C479.64 205.36 476.36 205.94 473.62 206.26C473.54 205.92 473.36 205.42 473.18 205.08C475.84 204.72 479.02 204.12 480.76 203.4ZM478.3 210.92C478.94 211.56 481.26 214.28 481.78 214.94L480.86 216.16C480.22 215.1 478.28 212.54 477.54 211.66L478.3 210.92ZM497.02 212.06H506.94V213.3H497.02V212.06ZM496.64 215.48H507.36V216.76H496.64V215.48ZM503.3 212.46H504.66V221.24H503.3V212.46ZM499.2 212.52H500.5V216.16C500.5 217.38 500.02 220 497.76 221.52C497.56 221.24 497.1 220.82 496.76 220.62C498.78 219.38 499.2 217.26 499.2 216.16V212.52ZM494.54 206.84H500.16V207.92H494.54V206.84ZM503.76 206.84H509.42V207.92H503.76V206.84ZM508.84 204.06H510.32V219.66C510.32 220.56 510.12 221.04 509.52 221.3C508.92 221.56 507.92 221.58 506.4 221.58C506.34 221.18 506.14 220.48 505.92 220.06C507.02 220.1 508.1 220.1 508.42 220.08C508.74 220.08 508.84 219.96 508.84 219.66V204.06ZM494.66 204.06H501.08V210.8H494.66V209.66H499.66V205.22H494.66V204.06ZM509.56 204.06V205.22H504.28V209.68H509.56V210.82H502.84V204.06H509.56ZM493.76 204.06H495.24V221.62H493.76V204.06ZM522.74 209.22H526.9V210.4H522.74V209.22ZM521.46 215.02H528.2V216.1H521.46V215.02ZM514.76 204.06H520.36V205.28H514.76V204.06ZM519.94 204.06H520.2L520.46 204L521.4 204.46C519.9 207.82 516.6 210.06 513.36 211.18C513.18 210.84 512.82 210.32 512.54 210.06C515.54 209.16 518.72 207.02 519.94 204.3V204.06ZM523.1 203.2C524.54 206.3 527.58 208.74 531.3 209.72C530.98 210.02 530.6 210.54 530.38 210.9C526.56 209.72 523.5 207.08 521.88 203.58L523.1 203.2ZM527.18 203.34L528.3 204.12C527.32 205.04 526.06 206 525.1 206.66L524.22 205.96C525.14 205.28 526.46 204.16 527.18 203.34ZM529.58 205.36L530.68 206.12C529.72 207.04 528.42 208 527.44 208.62L526.52 207.92C527.48 207.26 528.84 206.14 529.58 205.36ZM515.38 209.3H520.28V214.1H518.94V210.48H515.38V209.3ZM514.86 212.58H516.16C515.88 214.14 515.48 216.1 515.16 217.34L513.9 217.12C514.24 215.92 514.64 214.04 514.86 212.58ZM518.94 215.62H520.32C520.32 215.62 520.3 216.04 520.28 216.22C520.02 219.26 519.76 220.54 519.24 221.06C518.88 221.4 518.52 221.5 517.9 221.56C517.38 221.58 516.32 221.56 515.22 221.52C515.18 221.12 515.02 220.58 514.78 220.22C515.9 220.32 516.98 220.34 517.36 220.34C517.74 220.34 517.96 220.32 518.12 220.16C518.48 219.82 518.7 218.68 518.94 215.82V215.62ZM522.2 209.22H523.5V210.8C523.5 212.1 523.08 213.6 521.3 214.64C521.1 214.36 520.62 213.88 520.34 213.7C521.94 212.84 522.2 211.74 522.2 210.78V209.22ZM527.86 215.02H528.12L528.36 214.96L529.22 215.28C527.9 219 524.76 220.78 520.98 221.62C520.86 221.3 520.56 220.8 520.32 220.52C523.76 219.88 526.76 218.24 527.86 215.22V215.02ZM523.36 216.02C524.52 218.34 527.2 219.86 530.74 220.36C530.42 220.66 530.04 221.24 529.84 221.6C526.18 220.92 523.5 219.14 522.18 216.34L523.36 216.02ZM515.52 212.58H519.44V213.76H515.32L515.52 212.58ZM514.92 215.62H519.32V216.78H514.7L514.92 215.62ZM526.2 209.22H527.52V212.34C527.52 212.62 527.52 212.82 527.6 212.88C527.68 212.94 527.78 212.94 527.94 212.94C528.08 212.94 528.34 212.94 528.52 212.94C528.7 212.94 528.9 212.94 528.96 212.92C529.04 212.88 529.14 212.78 529.2 212.64C529.24 212.46 529.26 212.08 529.28 211.58C529.54 211.8 530.02 212.04 530.38 212.14C530.34 212.66 530.28 213.24 530.14 213.48C530.04 213.7 529.8 213.86 529.54 213.94C529.34 214.02 528.94 214.04 528.66 214.04C528.44 214.04 527.88 214.04 527.68 214.04C527.28 214.04 526.84 213.96 526.58 213.74C526.3 213.48 526.2 213.18 526.2 212.22V209.22ZM514.22 206.44L515.1 205.62C516.02 206.16 517.16 207 517.7 207.58L516.78 208.5C516.26 207.88 515.16 207.02 514.22 206.44ZM542.2 209.16H549.76V210.54H542.2V209.16ZM542.22 214H549.78V215.38H542.22V214ZM542.2 218.86H549.78V220.24H542.2V218.86ZM541.46 204.38H550.5V221.42H549V205.82H542.9V221.48H541.46V204.38ZM533.02 207.5H540.58V208.94H533.02V207.5ZM536.28 203.2H537.72V221.58H536.28V203.2ZM536.2 208.38L537.2 208.72C536.48 211.96 534.94 215.86 533.36 217.88C533.2 217.46 532.82 216.86 532.56 216.52C534.06 214.72 535.58 211.28 536.2 208.38ZM537.58 210.58C538.16 211.14 540.22 213.54 540.7 214.1L539.76 215.34C539.2 214.36 537.52 212.12 536.82 211.3L537.58 210.58ZM559.98 213.68L560.82 213.4C561.34 214.08 561.84 214.98 562 215.58L561.14 215.92C560.98 215.3 560.5 214.38 559.98 213.68ZM556.72 211.94L557.32 211.34C558.12 211.9 559 212.72 559.42 213.32L558.8 214.02C558.4 213.4 557.52 212.54 556.72 211.94ZM559.1 210.02L560.06 210.42C559.52 211.14 558.88 211.9 558.38 212.42L557.64 212.08C558.12 211.5 558.76 210.6 559.1 210.02ZM560.54 211.42L561.42 211.82C560.46 212.96 559.18 214.34 558.16 215.2L557.5 214.84C558.5 213.94 559.82 212.42 560.54 211.42ZM562.58 215.92H563.7V221.24H562.58V215.92ZM556.46 214.7C557.72 214.64 559.44 214.56 561.26 214.44V215.32C559.56 215.46 557.94 215.56 556.6 215.64L556.46 214.7ZM565.38 213.58L566.24 213.3C566.8 214 567.38 214.98 567.58 215.66L566.7 216C566.5 215.32 565.96 214.32 565.38 213.58ZM561.58 211.92L562.24 211.32C563.04 211.9 563.98 212.76 564.38 213.38L563.72 214.06C563.32 213.42 562.4 212.52 561.58 211.92ZM564.1 209.98L565.06 210.38C564.48 211.16 563.8 211.98 563.24 212.54L562.5 212.2C563.02 211.6 563.72 210.6 564.1 209.98ZM565.52 211.46L566.42 211.9C565.42 213.02 564.06 214.38 562.98 215.22L562.32 214.86C563.36 213.98 564.76 212.48 565.52 211.46ZM561.84 214.7C563.14 214.64 564.88 214.54 566.78 214.42V215.3C565.1 215.44 563.42 215.54 562.06 215.64L561.84 214.7ZM557.26 216.22H558.28V218.1H560.72V219.04H557.26V216.22ZM565.64 216.22H566.68V219.04H563.38V218.1H565.64V216.22ZM560.18 215.92H561.28V217.72C561.28 219.22 560.92 220.6 558.42 221.48C558.28 221.22 557.94 220.8 557.68 220.6C559.9 219.92 560.18 218.8 560.18 217.7V215.92ZM554.52 206.66H560.14V207.68H554.52V206.66ZM563.72 206.66H569.48V207.68H563.72V206.66ZM568.92 204.06H570.38V219.72C570.38 220.56 570.22 221.02 569.68 221.28C569.14 221.54 568.28 221.56 567.04 221.56C566.98 221.16 566.78 220.46 566.58 220.06C567.46 220.1 568.3 220.1 568.58 220.08C568.84 220.08 568.92 219.98 568.92 219.72V204.06ZM554.64 204.06H561.08V210.22H554.64V209.12H559.66V205.16H554.64V204.06ZM569.64 204.06V205.16H564.28V209.12H569.64V210.22H562.86V204.06H569.64ZM553.74 204.06H555.18V221.62H553.74V204.06ZM578.82 212.92H585.66V218.78H578.82V217.52H584.26V214.18H578.82V212.92ZM578.16 212.92H579.56V219.98H578.16V212.92ZM574.54 206.96H580.1V208.08H574.54V206.96ZM583.76 206.96H589.42V208.08H583.76V206.96ZM588.76 204.06H590.26V219.6C590.26 220.6 590.02 221.08 589.38 221.34C588.7 221.58 587.54 221.6 585.78 221.6C585.72 221.18 585.46 220.48 585.24 220.06C586.56 220.12 587.88 220.1 588.26 220.08C588.64 220.08 588.76 219.96 588.76 219.58V204.06ZM574.66 204.06H581.06V211.12H574.66V209.9H579.64V205.28H574.66V204.06ZM589.54 204.06V205.26H584.3V209.92H589.54V211.12H582.86V204.06H589.54ZM573.82 204.06H575.3V221.62H573.82V204.06ZM595.44 207.7V209.22H599.34V207.7H595.44ZM595.44 205.14V206.64H599.34V205.14H595.44ZM594.1 204.06H600.74V210.34H594.1V204.06ZM592.9 211.82H601.92V212.98H592.9V211.82ZM601.8 204.2H610.92V205.32H601.8V204.2ZM596.9 212.18H598.18V219.8L596.9 219V212.18ZM597.58 215.14H601.58V216.28H597.58V215.14ZM605.76 204.48L607.18 204.76C606.8 205.78 606.4 206.92 606.04 207.66L604.92 207.4C605.24 206.58 605.58 205.34 605.76 204.48ZM603.94 210.54V212.04H608.72V210.54H603.94ZM603.94 213.08V214.62H608.72V213.08H603.94ZM603.94 207.98V209.46H608.72V207.98H603.94ZM602.58 206.88H610.12V215.72H602.58V206.88ZM604.24 216.08L605.52 216.46C604.64 217.58 603.18 218.72 601.94 219.4C601.72 219.18 601.22 218.7 600.94 218.48C602.18 217.9 603.48 217 604.24 216.08ZM594.3 214.08H595.56C595.44 216.96 595.04 219.96 593.62 221.66C593.42 221.36 592.98 220.92 592.66 220.7C593.88 219.24 594.2 216.54 594.3 214.08ZM595.24 216.04C596.66 219.48 599.78 219.92 604.28 219.92C605.18 219.92 610.14 219.92 611.32 219.88C611.1 220.2 610.86 220.78 610.78 221.18H604.28C599.18 221.18 595.96 220.52 594.3 216.38L595.24 216.04ZM607.04 216.62L608.06 216.04C609.22 216.74 610.54 217.86 611.2 218.62L610.1 219.32C609.46 218.52 608.12 217.36 607.04 216.62Z" fill="#3B3B3B"/>
<path d="M315.14 245.04H321.86V246.04H315.14V245.04ZM315.14 247.22H321.86V248.22H315.14V247.22ZM315.12 249.4H322.4V250.52H315.12V249.4ZM312.84 234.58H322.86V235.74H312.84V234.58ZM317.98 243.58H319.26V249.98H317.98V243.58ZM315.22 233.22H316.56V236.96H315.22V233.22ZM319.1 233.22H320.44V236.96H319.1V233.22ZM314.54 238.36V240.1H316.24V238.36H314.54ZM313.46 237.36H317.36V241.1H313.46V237.36ZM319.3 238.36V240.1H321.14V238.36H319.3ZM318.22 237.36H322.26V241.1H318.22V237.36ZM315.66 242.78H322.38V243.86H315.66V251.56H314.36V244.04L315.54 242.78H315.66ZM318.6 241.18L319.94 241.54C319.54 242.3 319.12 243.1 318.8 243.64L317.74 243.32C318.06 242.7 318.42 241.8 318.6 241.18ZM315.22 241.08L316.5 241.42C315.78 243.52 314.62 245.64 313.34 247.04C313.16 246.76 312.72 246.16 312.48 245.9C313.64 244.68 314.64 242.9 315.22 241.08ZM324.16 236.82H330.1V238.2H324.16V236.82ZM326.58 237.4H327.3V240.96C327.28 242.5 327.8 247.72 331.3 250.32C331.02 250.64 330.6 251.24 330.38 251.6C327.66 249.54 326.74 245.68 326.58 244.08C326.38 245.72 325.36 249.46 322.36 251.6C322.2 251.28 321.76 250.68 321.52 250.4C325.36 247.7 325.88 242.56 325.86 240.96V237.4H326.58ZM324.34 233.18L325.82 233.4C325.34 236.82 324.54 240.08 323.24 242.22C322.98 242 322.34 241.56 321.98 241.36C323.26 239.4 323.96 236.32 324.34 233.18ZM329.6 236.82H329.84L330.06 236.72L331.04 237.08C330.82 238.84 330.46 240.92 330.02 242.24L328.92 241.7C329.22 240.52 329.48 238.6 329.6 237.1V236.82ZM336.78 241.1V248.18H335.36V242.5H332.9V241.1H336.78ZM336.78 247.58C337.72 249.08 339.5 249.76 341.88 249.86C344.14 249.96 348.84 249.9 351.3 249.74C351.12 250.06 350.88 250.74 350.82 251.16C348.54 251.26 344.18 251.3 341.9 251.22C339.24 251.12 337.42 250.4 336.16 248.82C335.3 249.68 334.4 250.54 333.44 251.44L332.66 250.02C333.52 249.36 334.58 248.46 335.5 247.58H336.78ZM333 234.42L334.16 233.68C335.34 234.62 336.68 236 337.24 237.02L335.98 237.86C335.46 236.86 334.16 235.42 333 234.42ZM344.36 234.7H349.74V236H345.76V249.06H344.36V234.7ZM338.98 234.72L340.38 235.12V245.76H338.98V234.72ZM348.96 234.7H350.38V245.04C350.38 245.76 350.22 246.16 349.72 246.38C349.22 246.62 348.42 246.62 347.2 246.62C347.14 246.26 346.94 245.68 346.74 245.34C347.64 245.36 348.4 245.36 348.66 245.34C348.88 245.34 348.96 245.26 348.96 245.02V234.7ZM343.04 233.16L344.16 234.26C342.92 235.02 341.28 235.72 339.84 236.22C339.76 235.92 339.56 235.44 339.38 235.14C340.68 234.6 342.2 233.82 343.04 233.16ZM337.66 245.54C339.16 245.16 341.38 244.56 343.56 243.92L343.74 245.24C341.76 245.82 339.66 246.42 338.06 246.9L337.66 245.54ZM358.88 234.88H370.96V236.14H358.88V234.88ZM358.32 246.56H371.22V247.84H358.32V246.56ZM364.14 233.2H365.6V238.18H364.14V233.2ZM361.84 240.82V242.1H367.98V240.82H361.84ZM361.84 243.1V244.38H367.98V243.1H361.84ZM361.84 238.6V239.84H367.98V238.6H361.84ZM360.46 237.56H369.42V245.42H360.46V237.56ZM365.96 248.86L367 248.1C368.58 248.96 370.32 250.04 371.36 250.86L369.98 251.62C369.06 250.82 367.46 249.72 365.96 248.86ZM362.28 248.16L363.68 248.64C362.44 249.82 360.5 250.94 358.86 251.64C358.62 251.36 358.06 250.82 357.74 250.58C359.4 250 361.2 249.1 362.28 248.16ZM353.04 238.1H358.94V239.52H353.04V238.1ZM355.38 233.46H356.8V246.5H355.38V233.46ZM352.66 246.92C354.28 246.32 356.72 245.28 359.08 244.28L359.42 245.68C357.3 246.66 355 247.66 353.24 248.42L352.66 246.92ZM381.22 233.22H382.72V235.68H381.22V233.22ZM373.5 234.82H390.5V238.38H389.08V236.14H374.88V238.38H373.5V234.82ZM380.54 236.78L381.5 237.76C380.18 238.3 378.38 238.76 376.86 239.04C376.8 238.78 376.62 238.36 376.48 238.1C377.9 237.74 379.58 237.24 380.54 236.78ZM375.94 237.8L377.3 238.1V243.38H375.94V237.8ZM375.94 242.68H386.76V238.9H382.58V237.8H388.14V243.8H375.94V242.68ZM376.42 240.24H381.14V241.32H376.42V240.24ZM382.88 240.24H387.46V241.32H382.88V240.24ZM378.7 243.2L380.04 243.6C378.66 245.78 376.18 247.56 373.76 248.66C373.58 248.36 373.14 247.74 372.86 247.46C375.18 246.56 377.5 245.04 378.7 243.2ZM377.84 245.1H388.94V246.32H376.6L377.84 245.1ZM388.46 245.1H389.94C389.94 245.1 389.92 245.5 389.9 245.7C389.68 249.16 389.44 250.52 388.96 251.04C388.6 251.4 388.24 251.52 387.68 251.56C387.18 251.6 386.22 251.58 385.22 251.54C385.2 251.14 385.04 250.58 384.8 250.22C385.78 250.3 386.7 250.32 387.02 250.3C387.38 250.32 387.56 250.3 387.72 250.14C388.06 249.78 388.26 248.54 388.46 245.3V245.1ZM376.2 247.12L377.4 247.5C377.1 248.92 376.54 250.46 375.44 251.36L374.34 250.68C375.32 249.88 375.9 248.44 376.2 247.12ZM378.58 247.46L379.76 247.32C380.18 248.44 380.5 249.88 380.5 250.8L379.26 250.98C379.28 250.06 379 248.6 378.58 247.46ZM381.4 247.36L382.5 247.06C383.12 248 383.68 249.28 383.84 250.1L382.7 250.46C382.54 249.62 382 248.34 381.4 247.36ZM384.18 247.26L385.18 246.78C385.88 247.42 386.62 248.32 386.94 248.98L385.88 249.5C385.6 248.86 384.86 247.9 384.18 247.26ZM393.98 234.88H410.04V236.18H393.98V234.88ZM394.9 237.82H409.26V239.08H394.9V237.82ZM393.24 240.88H410.72V242.2H393.24V240.88ZM401.18 233.2H402.7V241.9H401.18V233.2ZM401.12 241.32L402.42 241.94C400.34 244.22 396.64 246.32 393.54 247.34C393.3 246.96 392.88 246.4 392.56 246.1C395.64 245.22 399.26 243.3 401.12 241.32ZM403.3 241.52C404.5 245.8 407.1 248.96 411.34 250.22C411 250.52 410.58 251.14 410.36 251.54C405.94 250.02 403.32 246.64 401.94 241.8L403.3 241.52ZM409 242.86L410.2 243.8C408.78 244.94 406.88 246.16 405.44 246.96L404.52 246.14C405.92 245.3 407.86 243.92 409 242.86ZM394.78 250.22C397.08 249.72 400.68 248.82 404.1 247.98L404.24 249.32C401.08 250.14 397.66 251 395.26 251.6L394.78 250.22ZM397.6 245.04L398.68 243.96L399.1 244.08V250.12H397.6V245.04ZM421.16 239.6H422.7V251.6H421.16V239.6ZM416.62 242.98V244.72H427.5V242.98H416.62ZM416.62 240.12V241.82H427.5V240.12H416.62ZM415.16 238.9H429.02V245.92H415.16V238.9ZM413.14 247.46H430.88V248.78H413.14V247.46ZM415.98 235V236.9H419.82V235H415.98ZM414.62 234H421.22V237.9H414.62V234ZM424.2 235V236.9H428.08V235H424.2ZM422.84 234H429.5V237.9H422.84V234ZM435.14 252.14L434.68 251.1C436.32 250.42 437.22 249.4 437.22 247.9L436.84 246.2L437.92 247.72C437.64 248.08 437.24 248.18 436.86 248.18C436.04 248.18 435.36 247.7 435.36 246.74C435.36 245.8 436.08 245.3 436.88 245.3C438 245.3 438.6 246.22 438.6 247.62C438.6 249.78 437.24 251.42 435.14 252.14ZM463.02 233.26H464.62C464.58 242.4 466.54 250.06 468.98 250.06C469.56 250.06 469.78 249 469.9 246.34C470.24 246.68 470.8 247.04 471.22 247.18C470.96 250.64 470.38 251.62 468.86 251.62C464.88 251.62 463.12 242.74 463.02 233.26ZM465.82 234.2L466.7 233.28C467.94 233.8 469.42 234.68 470.16 235.34L469.24 236.4C468.52 235.72 467.06 234.78 465.82 234.2ZM468.44 239.32L469.92 239.68C468.18 245.08 465.16 249.1 460.96 251.62C460.74 251.32 460.14 250.72 459.82 250.44C463.98 248.2 466.86 244.36 468.44 239.32ZM453.34 236.4H470.72V237.88H453.34V236.4ZM453.24 248.7C455.42 248.28 458.82 247.6 462.08 246.9L462.2 248.34C459.14 249.02 455.86 249.74 453.52 250.24L453.24 248.7ZM455.88 240.96V244.46H459.96V240.96H455.88ZM454.5 239.66H461.44V245.74H454.5V239.66ZM475 249.16H491V250.58H475V249.16ZM473.24 235.06H490.82V236.44H473.24V235.06ZM474.28 238.66H475.76V251.64H474.28V238.66ZM479.42 241.92V243.58H487.08V241.92H479.42ZM479.42 244.66V246.32H487.08V244.66H479.42ZM479.42 239.22V240.84H487.08V239.22H479.42ZM477.98 238.08H488.58V247.46H477.98V238.08ZM481.52 233.14L483.24 233.26C483.04 235.14 482.72 237.36 482.44 238.76L480.96 238.64C481.2 237.16 481.46 234.78 481.52 233.14ZM504.22 233.2H505.74V235.94H504.22V233.2ZM499.48 235.34H510.6V236.64H499.48V235.34ZM498.68 240.02H511.16V241.34H498.68V240.02ZM501.36 236.82L502.66 236.56C503.1 237.64 503.48 239.04 503.56 239.9L502.2 240.24C502.14 239.36 501.78 237.92 501.36 236.82ZM507.3 236.52L508.78 236.74C508.36 237.92 507.88 239.28 507.46 240.18L506.18 239.96C506.58 239.02 507.06 237.52 507.3 236.52ZM498.78 243.32H511.08V244.62H498.78V243.32ZM503.36 240.98L504.86 241.28C503.84 243.58 502.42 246.5 501.4 248.34L500.1 247.9C501.1 246.12 502.48 243.16 503.36 240.98ZM501.12 247.64L502 246.62C505.02 247.48 508.78 249.08 510.72 250.48L509.76 251.62C507.92 250.26 504.18 248.56 501.12 247.64ZM507.3 244.16L508.76 244.38C507.8 248.84 505.06 250.78 498.88 251.6C498.78 251.18 498.52 250.66 498.28 250.34C504.04 249.76 506.44 248.06 507.3 244.16ZM492.54 243.84C494.16 243.44 496.6 242.72 498.96 242.04L499.14 243.38C496.96 244.06 494.66 244.78 492.88 245.32L492.54 243.84ZM492.88 237.24H498.98V238.64H492.88V237.24ZM495.6 233.22H497.04V249.78C497.04 250.64 496.86 251.06 496.34 251.3C495.82 251.56 495 251.6 493.7 251.6C493.64 251.22 493.44 250.56 493.24 250.14C494.14 250.18 494.98 250.18 495.22 250.16C495.48 250.16 495.6 250.08 495.6 249.78V233.22ZM525.08 234.46H528.78V235.8H525.08V234.46ZM520.46 235.44H524.68V236.72H520.46V235.44ZM525.28 238.16H528.74V239.42H525.28V238.16ZM525.24 241.9H528.64V243.16H525.24V241.9ZM515.38 238.16H518.78V239.42H515.38V238.16ZM515.46 241.88H518.8V243.16H515.46V241.88ZM514.58 234.6L516.36 235.14C516.32 235.26 516.22 235.34 515.98 235.38L516.34 246.22H514.98L514.58 234.6ZM527.96 234.46H529.36C529.34 238.22 529.22 243.3 529.02 246.18H527.6C527.82 243.24 527.98 238.14 527.96 234.46ZM518.26 233.4L519.44 234.48C518.22 235.12 516.72 235.76 515.44 236.24C515.36 235.98 515.12 235.5 514.96 235.2C516.12 234.66 517.46 233.94 518.26 233.4ZM519.8 240.9H521.04V246.1H519.8V240.9ZM519.82 233.38H521.12V238.8H523.72V240.02H519.82V233.38ZM522.98 238.8H524.28V246.08H522.98V238.8ZM512.88 245.58H531.14V246.98H512.88V245.58ZM523.86 248.26L524.92 247.26C527.14 248.3 529.56 249.64 531.02 250.64L529.62 251.66C528.28 250.68 526 249.32 523.86 248.26ZM518.62 247.3L520.02 248.2C518.44 249.44 516.08 250.8 514.18 251.64C513.92 251.34 513.4 250.86 513.04 250.58C514.98 249.78 517.38 248.4 518.62 247.3ZM546.06 234.52L547.2 233.74C548.38 234.74 549.78 236.16 550.44 237.08L549.2 237.96C548.6 237 547.24 235.56 546.06 234.52ZM533.1 239.12H550.92V240.56H533.1V239.12ZM532.8 245C535.18 244.56 538.94 243.76 542.46 243L542.58 244.36C539.3 245.12 535.76 245.94 533.24 246.5L532.8 245ZM537.4 235.24H538.9V249.68C538.9 250.66 538.66 251.1 538.02 251.34C537.38 251.58 536.32 251.64 534.66 251.62C534.58 251.22 534.32 250.54 534.1 250.1C535.38 250.16 536.56 250.14 536.92 250.12C537.28 250.12 537.4 250.02 537.4 249.66V235.24ZM541.2 233.44L542.26 234.7C539.94 235.5 536.54 236.12 533.68 236.52C533.6 236.18 533.42 235.62 533.22 235.28C536.04 234.84 539.28 234.16 541.2 233.44ZM543.2 233.38H544.76C544.72 242.56 546.68 250.16 549.12 250.16C549.66 250.16 549.9 249.12 550.02 246.54C550.34 246.88 550.88 247.22 551.3 247.38C551.02 250.7 550.48 251.68 548.98 251.68C545.06 251.68 543.28 242.9 543.2 233.38ZM548.62 241.48L549.96 242.04C548 245.7 544.7 248.92 541.02 250.86C540.78 250.48 540.36 250 539.98 249.66C543.54 247.94 546.84 244.86 548.62 241.48ZM552.92 234.06H559.98V235.42H552.92V234.06ZM554.76 238.26H558.38V239.52H554.76V238.26ZM560.7 246.74H563.7V247.82H560.7V246.74ZM566.82 246.74H569.98V247.82H566.82V246.74ZM554.76 242.38H558.38V243.66H554.76V242.38ZM553.98 234.74H555.26V247.54H553.98V234.74ZM557.56 234.74H558.86V251.6H557.56V234.74ZM566.1 242.74H567.36V251.6H566.1V242.74ZM560.24 243.5H561.4V248.74H560.24V243.5ZM569.28 243.5H570.48V248.68H569.28V243.5ZM552.7 247.3C554.12 247.08 556.16 246.68 558.22 246.26L558.32 247.58C556.44 247.98 554.52 248.4 552.96 248.72L552.7 247.3ZM563.22 242.78H564.46V245.98C564.46 248.2 564.08 250.26 561.26 251.66C561.1 251.36 560.72 250.88 560.46 250.66C562.92 249.42 563.22 247.72 563.22 245.96V242.78ZM559.56 241.2C560.86 241.12 562.64 240.98 564.54 240.84V241.88C562.8 242.04 561.1 242.2 559.72 242.3L559.56 241.2ZM559.84 236.64L560.56 235.78C561.48 236.52 562.52 237.56 562.94 238.34L562.22 239.3C561.78 238.52 560.78 237.4 559.84 236.64ZM563.22 239.66L564.16 239.36C564.76 240.24 565.28 241.44 565.44 242.24L564.42 242.62C564.3 241.82 563.78 240.6 563.22 239.66ZM562.36 233.22L563.62 233.64C562.98 234.82 562.2 236.24 561.58 237.12L560.72 236.76C561.28 235.82 561.98 234.26 562.36 233.22ZM563.76 235.64L564.92 236.06C563.9 237.94 562.48 240.32 561.36 241.76L560.5 241.4C561.62 239.9 562.98 237.4 563.76 235.64ZM565.44 241.14C566.74 241.06 568.52 240.92 570.4 240.78L570.42 241.82C568.7 241.98 567.02 242.14 565.64 242.26L565.44 241.14ZM565.36 236.6L566.06 235.7C567.06 236.46 568.14 237.54 568.6 238.34L567.86 239.34C567.4 238.52 566.34 237.38 565.36 236.6ZM568.92 239.64L569.88 239.3C570.54 240.26 571.14 241.54 571.32 242.38L570.28 242.78C570.12 241.94 569.54 240.64 568.92 239.64ZM567.96 233.22L569.24 233.64C568.6 234.84 567.82 236.26 567.2 237.14L566.28 236.76C566.86 235.82 567.58 234.28 567.96 233.22ZM569.42 235.6L570.64 236.04C569.6 237.92 568.18 240.3 567.02 241.74L566.16 241.34C567.28 239.86 568.64 237.34 569.42 235.6ZM581.44 244.24H589.94V251.6H588.48V245.56H582.86V251.64H581.44V244.24ZM582.3 249.32H588.98V250.66H582.3V249.32ZM583.84 233.22L585.32 233.46C584.3 235.68 582.72 238.18 580.36 240.14C580.12 239.84 579.64 239.36 579.34 239.18C581.54 237.44 583.06 235.1 583.84 233.22ZM583.48 235.16H588.98V236.48H582.82L583.48 235.16ZM588.52 235.16H588.84L589.1 235.1L590 235.62C588.3 240.14 584.58 243.22 580.72 244.82C580.54 244.46 580.08 243.88 579.78 243.62C583.56 242.2 587.12 239.34 588.52 235.44V235.16ZM583.24 236.56C584.9 239.46 588.24 242.1 591.64 243.26C591.3 243.56 590.88 244.12 590.66 244.48C587.2 243.12 583.88 240.3 582 237.06L583.24 236.56ZM575.9 233.22L577.22 233.74C576.46 235.2 575.52 236.98 574.74 238.08L573.7 237.6C574.46 236.46 575.38 234.54 575.9 233.22ZM578.14 235.5L579.4 236.06C578.04 238.36 576.12 241.26 574.64 243.02L573.72 242.5C575.2 240.7 577.08 237.66 578.14 235.5ZM572.74 237.42L573.5 236.44C574.62 237.38 575.88 238.68 576.42 239.58L575.62 240.72C575.08 239.78 573.82 238.38 572.74 237.42ZM577.44 240.14L578.48 239.72C579.3 241 580.08 242.7 580.36 243.78L579.22 244.28C578.98 243.18 578.22 241.46 577.44 240.14ZM572.68 242.18C574.42 242.12 576.92 242.02 579.46 241.88L579.44 243.12C577.04 243.28 574.62 243.42 572.8 243.54L572.68 242.18ZM577.96 244.86L579.04 244.52C579.6 245.64 580.14 247.16 580.34 248.16L579.18 248.56C579 247.56 578.46 246.02 577.96 244.86ZM573.8 244.64L575.1 244.88C574.82 246.76 574.32 248.7 573.68 249.98C573.42 249.82 572.82 249.54 572.5 249.4C573.16 248.18 573.56 246.4 573.8 244.64ZM575.96 242.74H577.3V251.66H575.96V242.74ZM601.34 245.18L600.94 237.42L600.88 235.04H603.1L603.04 237.42L602.64 245.18H601.34ZM602 250.1C601.28 250.1 600.7 249.6 600.7 248.8C600.7 248 601.28 247.46 602 247.46C602.7 247.46 603.28 248 603.28 248.8C603.28 249.6 602.7 250.1 602 250.1Z" fill="#3B3B3B"/>
<path d="M320.756 298.04C320.756 298.733 320.583 299.313 320.236 299.78C319.89 300.247 319.396 300.6 318.756 300.84C318.116 301.08 317.356 301.2 316.476 301.2C315.73 301.2 315.083 301.14 314.536 301.02C314.003 300.9 313.53 300.733 313.116 300.52V298.92C313.543 299.133 314.056 299.333 314.656 299.52C315.27 299.693 315.89 299.78 316.516 299.78C317.41 299.78 318.056 299.64 318.456 299.36C318.856 299.067 319.056 298.68 319.056 298.2C319.056 297.933 318.983 297.693 318.836 297.48C318.69 297.267 318.423 297.053 318.036 296.84C317.663 296.627 317.123 296.387 316.416 296.12C315.723 295.853 315.13 295.587 314.636 295.32C314.143 295.053 313.763 294.733 313.496 294.36C313.23 293.987 313.096 293.507 313.096 292.92C313.096 292.013 313.463 291.313 314.196 290.82C314.943 290.327 315.916 290.08 317.116 290.08C317.77 290.08 318.376 290.147 318.936 290.28C319.51 290.4 320.043 290.573 320.536 290.8L319.936 292.2C319.643 292.067 319.33 291.953 318.996 291.86C318.676 291.753 318.35 291.673 318.016 291.62C317.683 291.553 317.343 291.52 316.996 291.52C316.276 291.52 315.723 291.64 315.336 291.88C314.963 292.107 314.776 292.42 314.776 292.82C314.776 293.113 314.863 293.367 315.036 293.58C315.21 293.78 315.496 293.98 315.896 294.18C316.31 294.367 316.856 294.593 317.536 294.86C318.216 295.113 318.796 295.373 319.276 295.64C319.756 295.907 320.123 296.233 320.376 296.62C320.63 296.993 320.756 297.467 320.756 298.04ZM327.486 290.08C328.406 290.08 329.193 290.28 329.846 290.68C330.513 291.08 331.02 291.647 331.366 292.38C331.726 293.1 331.906 293.947 331.906 294.92V295.98H324.566C324.593 297.193 324.9 298.12 325.486 298.76C326.086 299.387 326.92 299.7 327.986 299.7C328.666 299.7 329.266 299.64 329.786 299.52C330.32 299.387 330.866 299.2 331.426 298.96V300.5C330.88 300.74 330.34 300.913 329.806 301.02C329.273 301.14 328.64 301.2 327.906 301.2C326.893 301.2 325.993 300.993 325.206 300.58C324.433 300.167 323.826 299.553 323.386 298.74C322.96 297.913 322.746 296.907 322.746 295.72C322.746 294.547 322.94 293.54 323.326 292.7C323.726 291.86 324.28 291.213 324.986 290.76C325.706 290.307 326.54 290.08 327.486 290.08ZM327.466 291.52C326.626 291.52 325.96 291.793 325.466 292.34C324.986 292.873 324.7 293.62 324.606 294.58H330.066C330.066 293.967 329.973 293.433 329.786 292.98C329.6 292.527 329.313 292.173 328.926 291.92C328.553 291.653 328.066 291.52 327.466 291.52ZM339.636 290.08C339.836 290.08 340.049 290.093 340.276 290.12C340.516 290.133 340.722 290.16 340.896 290.2L340.676 291.82C340.502 291.78 340.309 291.747 340.096 291.72C339.896 291.693 339.702 291.68 339.516 291.68C339.102 291.68 338.709 291.767 338.336 291.94C337.962 292.113 337.629 292.36 337.336 292.68C337.042 292.987 336.809 293.36 336.636 293.8C336.476 294.24 336.396 294.733 336.396 295.28V301H334.636V290.28H336.076L336.276 292.24H336.356C336.582 291.84 336.856 291.48 337.176 291.16C337.496 290.827 337.862 290.567 338.276 290.38C338.689 290.18 339.142 290.08 339.636 290.08ZM345.257 301L341.197 290.28H343.077L345.357 296.6C345.464 296.893 345.577 297.22 345.697 297.58C345.817 297.94 345.924 298.287 346.017 298.62C346.111 298.94 346.177 299.213 346.217 299.44H346.297C346.351 299.213 346.424 298.933 346.517 298.6C346.624 298.267 346.737 297.92 346.857 297.56C346.991 297.2 347.104 296.88 347.197 296.6L349.477 290.28H351.357L347.277 301H345.257ZM354.814 290.28V301H353.054V290.28H354.814ZM353.954 286.26C354.22 286.26 354.454 286.353 354.654 286.54C354.867 286.713 354.974 286.993 354.974 287.38C354.974 287.753 354.867 288.033 354.654 288.22C354.454 288.407 354.22 288.5 353.954 288.5C353.66 288.5 353.414 288.407 353.214 288.22C353.014 288.033 352.914 287.753 352.914 287.38C352.914 286.993 353.014 286.713 353.214 286.54C353.414 286.353 353.66 286.26 353.954 286.26ZM362.51 301.2C361.563 301.2 360.716 301.007 359.97 300.62C359.236 300.233 358.656 299.633 358.23 298.82C357.816 298.007 357.61 296.967 357.61 295.7C357.61 294.38 357.83 293.307 358.27 292.48C358.71 291.653 359.303 291.047 360.05 290.66C360.81 290.273 361.67 290.08 362.63 290.08C363.176 290.08 363.703 290.14 364.21 290.26C364.716 290.367 365.13 290.5 365.45 290.66L364.91 292.12C364.59 292 364.216 291.887 363.79 291.78C363.363 291.673 362.963 291.62 362.59 291.62C361.87 291.62 361.276 291.773 360.81 292.08C360.343 292.387 359.996 292.84 359.77 293.44C359.543 294.04 359.43 294.787 359.43 295.68C359.43 296.533 359.543 297.26 359.77 297.86C359.996 298.46 360.336 298.913 360.79 299.22C361.243 299.527 361.81 299.68 362.49 299.68C363.076 299.68 363.59 299.62 364.03 299.5C364.483 299.38 364.896 299.233 365.27 299.06V300.62C364.91 300.807 364.51 300.947 364.07 301.04C363.643 301.147 363.123 301.2 362.51 301.2ZM371.959 290.08C372.879 290.08 373.666 290.28 374.319 290.68C374.986 291.08 375.492 291.647 375.839 292.38C376.199 293.1 376.379 293.947 376.379 294.92V295.98H369.039C369.066 297.193 369.372 298.12 369.959 298.76C370.559 299.387 371.392 299.7 372.459 299.7C373.139 299.7 373.739 299.64 374.259 299.52C374.792 299.387 375.339 299.2 375.899 298.96V300.5C375.352 300.74 374.812 300.913 374.279 301.02C373.746 301.14 373.112 301.2 372.379 301.2C371.366 301.2 370.466 300.993 369.679 300.58C368.906 300.167 368.299 299.553 367.859 298.74C367.432 297.913 367.219 296.907 367.219 295.72C367.219 294.547 367.412 293.54 367.799 292.7C368.199 291.86 368.752 291.213 369.459 290.76C370.179 290.307 371.012 290.08 371.959 290.08ZM371.939 291.52C371.099 291.52 370.432 291.793 369.939 292.34C369.459 292.873 369.172 293.62 369.079 294.58H374.539C374.539 293.967 374.446 293.433 374.259 292.98C374.072 292.527 373.786 292.173 373.399 291.92C373.026 291.653 372.539 291.52 371.939 291.52ZM394.228 293.86C394.228 294.473 394.155 295.073 394.008 295.66C393.875 296.247 393.662 296.78 393.368 297.26C393.075 297.727 392.715 298.107 392.288 298.4C391.862 298.68 391.355 298.82 390.768 298.82C390.155 298.82 389.668 298.647 389.308 298.3C388.962 297.94 388.748 297.533 388.668 297.08H388.568C388.328 297.573 387.975 297.987 387.508 298.32C387.042 298.653 386.455 298.82 385.748 298.82C384.735 298.82 383.948 298.48 383.388 297.8C382.842 297.12 382.568 296.22 382.568 295.1C382.568 294.22 382.742 293.447 383.088 292.78C383.435 292.1 383.922 291.567 384.548 291.18C385.188 290.793 385.942 290.6 386.808 290.6C387.395 290.6 387.968 290.653 388.528 290.76C389.102 290.853 389.548 290.96 389.868 291.08L389.668 295.14C389.655 295.38 389.648 295.553 389.648 295.66C389.648 295.753 389.648 295.82 389.648 295.86C389.648 296.553 389.768 297.013 390.008 297.24C390.262 297.467 390.555 297.58 390.888 297.58C391.302 297.58 391.648 297.413 391.928 297.08C392.222 296.733 392.442 296.28 392.588 295.72C392.748 295.147 392.828 294.52 392.828 293.84C392.828 292.6 392.575 291.553 392.068 290.7C391.575 289.833 390.888 289.173 390.008 288.72C389.142 288.267 388.155 288.04 387.048 288.04C385.915 288.04 384.908 288.22 384.028 288.58C383.148 288.94 382.408 289.447 381.808 290.1C381.222 290.753 380.775 291.527 380.468 292.42C380.162 293.3 380.008 294.273 380.008 295.34C380.008 296.647 380.242 297.76 380.708 298.68C381.175 299.587 381.855 300.28 382.748 300.76C383.655 301.227 384.762 301.46 386.068 301.46C386.882 301.46 387.655 301.367 388.388 301.18C389.135 301.007 389.795 300.813 390.368 300.6V301.96C389.795 302.2 389.148 302.393 388.428 302.54C387.722 302.7 386.935 302.78 386.068 302.78C384.495 302.78 383.148 302.487 382.028 301.9C380.908 301.313 380.048 300.473 379.448 299.38C378.862 298.273 378.568 296.947 378.568 295.4C378.568 294.16 378.762 293.013 379.148 291.96C379.535 290.893 380.095 289.973 380.828 289.2C381.562 288.413 382.448 287.807 383.488 287.38C384.542 286.94 385.728 286.72 387.048 286.72C388.088 286.72 389.042 286.887 389.908 287.22C390.788 287.54 391.548 288.013 392.188 288.64C392.842 289.253 393.342 290 393.688 290.88C394.048 291.76 394.228 292.753 394.228 293.86ZM384.128 295.14C384.128 295.993 384.295 296.613 384.628 297C384.975 297.387 385.435 297.58 386.008 297.58C386.755 297.58 387.288 297.3 387.608 296.74C387.942 296.18 388.135 295.453 388.188 294.56L388.308 292.06C388.135 292.007 387.915 291.96 387.648 291.92C387.382 291.88 387.108 291.86 386.828 291.86C386.175 291.86 385.648 292.02 385.248 292.34C384.848 292.66 384.562 293.073 384.388 293.58C384.215 294.073 384.128 294.593 384.128 295.14ZM398.856 290.26C398.856 290.513 398.843 290.773 398.816 291.04C398.803 291.307 398.783 291.547 398.756 291.76H398.876C399.103 291.387 399.39 291.08 399.736 290.84C400.083 290.6 400.47 290.42 400.896 290.3C401.323 290.167 401.763 290.1 402.216 290.1C403.083 290.1 403.803 290.24 404.376 290.52C404.963 290.787 405.403 291.207 405.696 291.78C405.99 292.353 406.136 293.1 406.136 294.02V301H404.396V294.14C404.396 293.273 404.203 292.627 403.816 292.2C403.43 291.773 402.823 291.56 401.996 291.56C401.196 291.56 400.57 291.713 400.116 292.02C399.663 292.313 399.336 292.753 399.136 293.34C398.95 293.913 398.856 294.62 398.856 295.46V301H397.096V285.8H398.856V290.26ZM413.6 290.08C414.52 290.08 415.306 290.28 415.96 290.68C416.626 291.08 417.133 291.647 417.48 292.38C417.84 293.1 418.02 293.947 418.02 294.92V295.98H410.68C410.706 297.193 411.013 298.12 411.6 298.76C412.2 299.387 413.033 299.7 414.1 299.7C414.78 299.7 415.38 299.64 415.9 299.52C416.433 299.387 416.98 299.2 417.54 298.96V300.5C416.993 300.74 416.453 300.913 415.92 301.02C415.386 301.14 414.753 301.2 414.02 301.2C413.006 301.2 412.106 300.993 411.32 300.58C410.546 300.167 409.94 299.553 409.5 298.74C409.073 297.913 408.86 296.907 408.86 295.72C408.86 294.547 409.053 293.54 409.44 292.7C409.84 291.86 410.393 291.213 411.1 290.76C411.82 290.307 412.653 290.08 413.6 290.08ZM413.58 291.52C412.74 291.52 412.073 291.793 411.58 292.34C411.1 292.873 410.813 293.62 410.72 294.58H416.18C416.18 293.967 416.086 293.433 415.9 292.98C415.713 292.527 415.426 292.173 415.04 291.92C414.666 291.653 414.18 291.52 413.58 291.52ZM422.898 295.52L419.198 290.28H421.198L423.958 294.32L426.698 290.28H428.678L424.978 295.52L428.878 301H426.878L423.958 296.72L420.998 301H419.018L422.898 295.52ZM437.924 298.04C437.924 298.733 437.751 299.313 437.404 299.78C437.057 300.247 436.564 300.6 435.924 300.84C435.284 301.08 434.524 301.2 433.644 301.2C432.897 301.2 432.251 301.14 431.704 301.02C431.171 300.9 430.697 300.733 430.284 300.52V298.92C430.711 299.133 431.224 299.333 431.824 299.52C432.437 299.693 433.057 299.78 433.684 299.78C434.577 299.78 435.224 299.64 435.624 299.36C436.024 299.067 436.224 298.68 436.224 298.2C436.224 297.933 436.151 297.693 436.004 297.48C435.857 297.267 435.591 297.053 435.204 296.84C434.831 296.627 434.291 296.387 433.584 296.12C432.891 295.853 432.297 295.587 431.804 295.32C431.311 295.053 430.931 294.733 430.664 294.36C430.397 293.987 430.264 293.507 430.264 292.92C430.264 292.013 430.631 291.313 431.364 290.82C432.111 290.327 433.084 290.08 434.284 290.08C434.937 290.08 435.544 290.147 436.104 290.28C436.677 290.4 437.211 290.573 437.704 290.8L437.104 292.2C436.811 292.067 436.497 291.953 436.164 291.86C435.844 291.753 435.517 291.673 435.184 291.62C434.851 291.553 434.511 291.52 434.164 291.52C433.444 291.52 432.891 291.64 432.504 291.88C432.131 292.107 431.944 292.42 431.944 292.82C431.944 293.113 432.031 293.367 432.204 293.58C432.377 293.78 432.664 293.98 433.064 294.18C433.477 294.367 434.024 294.593 434.704 294.86C435.384 295.113 435.964 295.373 436.444 295.64C436.924 295.907 437.291 296.233 437.544 296.62C437.797 296.993 437.924 297.467 437.924 298.04ZM444.814 301.2C443.868 301.2 443.021 301.007 442.274 300.62C441.541 300.233 440.961 299.633 440.534 298.82C440.121 298.007 439.914 296.967 439.914 295.7C439.914 294.38 440.134 293.307 440.574 292.48C441.014 291.653 441.608 291.047 442.354 290.66C443.114 290.273 443.974 290.08 444.934 290.08C445.481 290.08 446.008 290.14 446.514 290.26C447.021 290.367 447.434 290.5 447.754 290.66L447.214 292.12C446.894 292 446.521 291.887 446.094 291.78C445.668 291.673 445.268 291.62 444.894 291.62C444.174 291.62 443.581 291.773 443.114 292.08C442.648 292.387 442.301 292.84 442.074 293.44C441.848 294.04 441.734 294.787 441.734 295.68C441.734 296.533 441.848 297.26 442.074 297.86C442.301 298.46 442.641 298.913 443.094 299.22C443.548 299.527 444.114 299.68 444.794 299.68C445.381 299.68 445.894 299.62 446.334 299.5C446.788 299.38 447.201 299.233 447.574 299.06V300.62C447.214 300.807 446.814 300.947 446.374 301.04C445.948 301.147 445.428 301.2 444.814 301.2ZM451.884 290.26C451.884 290.513 451.87 290.773 451.844 291.04C451.83 291.307 451.81 291.547 451.784 291.76H451.904C452.13 291.387 452.417 291.08 452.764 290.84C453.11 290.6 453.497 290.42 453.924 290.3C454.35 290.167 454.79 290.1 455.244 290.1C456.11 290.1 456.83 290.24 457.404 290.52C457.99 290.787 458.43 291.207 458.724 291.78C459.017 292.353 459.164 293.1 459.164 294.02V301H457.424V294.14C457.424 293.273 457.23 292.627 456.844 292.2C456.457 291.773 455.85 291.56 455.024 291.56C454.224 291.56 453.597 291.713 453.144 292.02C452.69 292.313 452.364 292.753 452.164 293.34C451.977 293.913 451.884 294.62 451.884 295.46V301H450.124V285.8H451.884V290.26ZM471.807 295.62C471.807 296.513 471.687 297.307 471.447 298C471.22 298.68 470.887 299.26 470.447 299.74C470.02 300.22 469.494 300.587 468.867 300.84C468.254 301.08 467.567 301.2 466.807 301.2C466.1 301.2 465.447 301.08 464.847 300.84C464.247 300.587 463.727 300.22 463.287 299.74C462.847 299.26 462.5 298.68 462.247 298C462.007 297.307 461.887 296.513 461.887 295.62C461.887 294.433 462.087 293.433 462.487 292.62C462.887 291.793 463.46 291.167 464.207 290.74C464.954 290.3 465.84 290.08 466.867 290.08C467.84 290.08 468.694 290.3 469.427 290.74C470.174 291.167 470.754 291.793 471.167 292.62C471.594 293.433 471.807 294.433 471.807 295.62ZM463.707 295.62C463.707 296.46 463.814 297.193 464.027 297.82C464.254 298.433 464.6 298.907 465.067 299.24C465.534 299.573 466.127 299.74 466.847 299.74C467.567 299.74 468.16 299.573 468.627 299.24C469.094 298.907 469.434 298.433 469.647 297.82C469.874 297.193 469.987 296.46 469.987 295.62C469.987 294.767 469.874 294.04 469.647 293.44C469.42 292.84 469.074 292.38 468.607 292.06C468.154 291.727 467.56 291.56 466.827 291.56C465.734 291.56 464.94 291.92 464.447 292.64C463.954 293.36 463.707 294.353 463.707 295.62ZM483.916 295.62C483.916 296.513 483.796 297.307 483.556 298C483.33 298.68 482.996 299.26 482.556 299.74C482.13 300.22 481.603 300.587 480.976 300.84C480.363 301.08 479.676 301.2 478.916 301.2C478.21 301.2 477.556 301.08 476.956 300.84C476.356 300.587 475.836 300.22 475.396 299.74C474.956 299.26 474.61 298.68 474.356 298C474.116 297.307 473.996 296.513 473.996 295.62C473.996 294.433 474.196 293.433 474.596 292.62C474.996 291.793 475.57 291.167 476.316 290.74C477.063 290.3 477.95 290.08 478.976 290.08C479.95 290.08 480.803 290.3 481.536 290.74C482.283 291.167 482.863 291.793 483.276 292.62C483.703 293.433 483.916 294.433 483.916 295.62ZM475.816 295.62C475.816 296.46 475.923 297.193 476.136 297.82C476.363 298.433 476.71 298.907 477.176 299.24C477.643 299.573 478.236 299.74 478.956 299.74C479.676 299.74 480.27 299.573 480.736 299.24C481.203 298.907 481.543 298.433 481.756 297.82C481.983 297.193 482.096 296.46 482.096 295.62C482.096 294.767 481.983 294.04 481.756 293.44C481.53 292.84 481.183 292.38 480.716 292.06C480.263 291.727 479.67 291.56 478.936 291.56C477.843 291.56 477.05 291.92 476.556 292.64C476.063 293.36 475.816 294.353 475.816 295.62ZM488.466 301H486.706V285.8H488.466V301ZM491.602 299.92C491.602 299.427 491.722 299.08 491.962 298.88C492.202 298.68 492.489 298.58 492.822 298.58C493.169 298.58 493.462 298.68 493.702 298.88C493.955 299.08 494.082 299.427 494.082 299.92C494.082 300.4 493.955 300.747 493.702 300.96C493.462 301.173 493.169 301.28 492.822 301.28C492.489 301.28 492.202 301.173 491.962 300.96C491.722 300.747 491.602 300.4 491.602 299.92ZM501.514 301.2C500.567 301.2 499.72 301.007 498.974 300.62C498.24 300.233 497.66 299.633 497.234 298.82C496.82 298.007 496.614 296.967 496.614 295.7C496.614 294.38 496.834 293.307 497.274 292.48C497.714 291.653 498.307 291.047 499.054 290.66C499.814 290.273 500.674 290.08 501.634 290.08C502.18 290.08 502.707 290.14 503.214 290.26C503.72 290.367 504.134 290.5 504.454 290.66L503.914 292.12C503.594 292 503.22 291.887 502.794 291.78C502.367 291.673 501.967 291.62 501.594 291.62C500.874 291.62 500.28 291.773 499.814 292.08C499.347 292.387 499 292.84 498.774 293.44C498.547 294.04 498.434 294.787 498.434 295.68C498.434 296.533 498.547 297.26 498.774 297.86C499 298.46 499.34 298.913 499.794 299.22C500.247 299.527 500.814 299.68 501.494 299.68C502.08 299.68 502.594 299.62 503.034 299.5C503.487 299.38 503.9 299.233 504.274 299.06V300.62C503.914 300.807 503.514 300.947 503.074 301.04C502.647 301.147 502.127 301.2 501.514 301.2ZM516.143 295.62C516.143 296.513 516.023 297.307 515.783 298C515.556 298.68 515.223 299.26 514.783 299.74C514.356 300.22 513.83 300.587 513.203 300.84C512.59 301.08 511.903 301.2 511.143 301.2C510.436 301.2 509.783 301.08 509.183 300.84C508.583 300.587 508.063 300.22 507.623 299.74C507.183 299.26 506.836 298.68 506.583 298C506.343 297.307 506.223 296.513 506.223 295.62C506.223 294.433 506.423 293.433 506.823 292.62C507.223 291.793 507.796 291.167 508.543 290.74C509.29 290.3 510.176 290.08 511.203 290.08C512.176 290.08 513.03 290.3 513.763 290.74C514.51 291.167 515.09 291.793 515.503 292.62C515.93 293.433 516.143 294.433 516.143 295.62ZM508.043 295.62C508.043 296.46 508.15 297.193 508.363 297.82C508.59 298.433 508.936 298.907 509.403 299.24C509.87 299.573 510.463 299.74 511.183 299.74C511.903 299.74 512.496 299.573 512.963 299.24C513.43 298.907 513.77 298.433 513.983 297.82C514.21 297.193 514.323 296.46 514.323 295.62C514.323 294.767 514.21 294.04 513.983 293.44C513.756 292.84 513.41 292.38 512.943 292.06C512.49 291.727 511.896 291.56 511.163 291.56C510.07 291.56 509.276 291.92 508.783 292.64C508.29 293.36 508.043 294.353 508.043 295.62ZM530.692 290.08C531.906 290.08 532.812 290.393 533.412 291.02C534.012 291.633 534.312 292.633 534.312 294.02V301H532.572V294.1C532.572 293.26 532.392 292.627 532.032 292.2C531.686 291.773 531.139 291.56 530.392 291.56C529.352 291.56 528.606 291.86 528.152 292.46C527.712 293.06 527.492 293.933 527.492 295.08V301H525.752V294.1C525.752 293.54 525.672 293.073 525.512 292.7C525.352 292.313 525.112 292.027 524.792 291.84C524.472 291.653 524.059 291.56 523.552 291.56C522.832 291.56 522.266 291.713 521.852 292.02C521.439 292.313 521.139 292.747 520.952 293.32C520.779 293.893 520.692 294.6 520.692 295.44V301H518.932V290.28H520.352L520.612 291.74H520.712C520.939 291.367 521.212 291.06 521.532 290.82C521.866 290.567 522.232 290.38 522.632 290.26C523.032 290.14 523.446 290.08 523.872 290.08C524.699 290.08 525.386 290.227 525.932 290.52C526.492 290.813 526.899 291.267 527.152 291.88H527.252C527.612 291.267 528.099 290.813 528.712 290.52C529.339 290.227 529.999 290.08 530.692 290.08Z" fill="#919191"/>
<rect x="1302" y="80" width="306" height="72" rx="8" fill="black"/>
<path fill-rule="evenodd" clip-rule="evenodd" d="M1342 101H1365V131H1342L1342 101ZM1339 101C1339 99.3431 1340.34 98 1342 98H1365C1366.66 98 1368 99.3431 1368 101V131C1368 132.657 1366.66 134 1365 134H1342C1340.34 134 1339 132.657 1339 131V101ZM1348 108C1348 108.828 1347.33 109.5 1346.5 109.5C1345.67 109.5 1345 108.828 1345 108C1345 107.172 1345.67 106.5 1346.5 106.5C1347.33 106.5 1348 107.172 1348 108ZM1348 115C1348 115.828 1347.33 116.5 1346.5 116.5C1345.67 116.5 1345 115.828 1345 115C1345 114.172 1345.67 113.5 1346.5 113.5C1347.33 113.5 1348 114.172 1348 115ZM1346.5 123.5C1347.33 123.5 1348 122.828 1348 122C1348 121.172 1347.33 120.5 1346.5 120.5C1345.67 120.5 1345 121.172 1345 122C1345 122.828 1345.67 123.5 1346.5 123.5ZM1350 108C1350 107.172 1350.67 106.5 1351.5 106.5H1359.5C1360.33 106.5 1361 107.172 1361 108C1361 108.828 1360.33 109.5 1359.5 109.5H1351.5C1350.67 109.5 1350 108.828 1350 108ZM1351.5 113.5C1350.67 113.5 1350 114.172 1350 115C1350 115.828 1350.67 116.5 1351.5 116.5H1359.5C1360.33 116.5 1361 115.828 1361 115C1361 114.172 1360.33 113.5 1359.5 113.5H1351.5ZM1350 122C1350 121.172 1350.67 120.5 1351.5 120.5H1359.5C1360.33 120.5 1361 121.172 1361 122C1361 122.828 1360.33 123.5 1359.5 123.5H1351.5C1350.67 123.5 1350 122.828 1350 122Z" fill="white"/>
<path d="M1396.96 108.42H1409.1V110.36H1396.96V108.42ZM1396.34 120.1H1409.4V122.1H1396.34V120.1ZM1401.82 107.02H1404.16V112.22H1401.82V107.02ZM1400.6 114.88V115.66H1405.42V114.88H1400.6ZM1400.6 117.04V117.82H1405.42V117.04H1400.6ZM1400.6 112.74V113.5H1405.42V112.74H1400.6ZM1398.42 111.28H1407.7V119.3H1398.42V111.28ZM1403.72 123.12L1405.38 121.96C1406.86 122.8 1408.58 123.92 1409.56 124.7L1407.34 125.8C1406.54 125.06 1405.06 123.94 1403.72 123.12ZM1400 122.06L1402.26 122.82C1401.08 124.04 1399.14 125.16 1397.5 125.84C1397.1 125.38 1396.24 124.54 1395.72 124.16C1397.36 123.68 1399.06 122.9 1400 122.06ZM1390.88 111.8H1396.94V114.06H1390.88V111.8ZM1392.9 107.32H1395.14V120.6H1392.9V107.32ZM1390.44 120.4C1392.08 119.82 1394.58 118.8 1396.96 117.8L1397.52 120.02C1395.44 121.02 1393.16 122.02 1391.34 122.82L1390.44 120.4ZM1418.78 107.04H1421.18V109.76H1418.78V107.04ZM1411.32 108.4H1428.68V112.54H1426.4V110.46H1413.48V112.54H1411.32V108.4ZM1418.32 110.64L1419.74 112.1C1418.36 112.68 1416.56 113.1 1415.04 113.34C1414.96 112.96 1414.7 112.3 1414.48 111.9C1415.84 111.6 1417.4 111.12 1418.32 110.64ZM1413.74 111.52L1415.86 111.92V117.3H1413.74V111.52ZM1413.74 116.3H1424.06V113.14H1420.44V111.52H1426.24V117.94H1413.74V116.3ZM1414.38 113.92H1419.2V115.5H1414.38V113.92ZM1420.76 113.92H1425.06V115.5H1420.76V113.92ZM1416.38 116.98L1418.5 117.6C1417.12 119.96 1414.64 121.82 1412.06 122.94C1411.78 122.46 1411.1 121.5 1410.68 121.06C1413.04 120.24 1415.28 118.8 1416.38 116.98ZM1416.06 118.84H1426.52V120.72H1414.16L1416.06 118.84ZM1425.78 118.84H1428.14C1428.14 118.84 1428.12 119.4 1428.1 119.68C1427.92 122.98 1427.7 124.42 1427.2 125C1426.76 125.48 1426.28 125.62 1425.68 125.7C1425.12 125.78 1424.18 125.76 1423.16 125.74C1423.12 125.1 1422.88 124.22 1422.52 123.66C1423.36 123.74 1424.16 123.76 1424.5 123.74C1424.82 123.76 1425 123.74 1425.18 123.56C1425.48 123.24 1425.64 122.08 1425.78 119.14V118.84ZM1414 121.08L1415.9 121.66C1415.62 123.1 1415.14 124.6 1414.16 125.52L1412.38 124.54C1413.24 123.72 1413.76 122.38 1414 121.08ZM1416.5 121.6L1418.3 121.4C1418.66 122.54 1418.92 124 1418.9 124.94L1416.98 125.18C1417.04 124.26 1416.84 122.76 1416.5 121.6ZM1419.22 121.64L1420.88 121.22C1421.38 122.14 1421.82 123.34 1421.92 124.12L1420.16 124.6C1420.06 123.8 1419.68 122.58 1419.22 121.64ZM1421.82 121.54L1423.36 120.88C1423.92 121.44 1424.48 122.24 1424.72 122.82L1423.1 123.54C1422.9 122.98 1422.34 122.12 1421.82 121.54ZM1431.84 108.34H1448.22V110.38H1431.84V108.34ZM1432.76 111.4H1447.44V113.32H1432.76V111.4ZM1431.1 114.42H1448.86V116.46H1431.1V114.42ZM1438.72 107.02H1441.16V116.14H1438.72V107.02ZM1438.74 115.18L1440.82 116.16C1438.68 118.46 1435.14 120.48 1431.88 121.5C1431.52 120.92 1430.84 120.04 1430.34 119.54C1433.5 118.72 1436.98 117 1438.74 115.18ZM1442.2 115.56C1443.24 119.54 1445.46 122.44 1449.58 123.62C1449.04 124.1 1448.36 125.1 1448.02 125.76C1443.54 124.2 1441.32 120.88 1440.02 115.98L1442.2 115.56ZM1446.82 116.76L1448.8 118.26C1447.3 119.34 1445.5 120.44 1444.12 121.12L1442.6 119.84C1443.94 119.06 1445.74 117.78 1446.82 116.76ZM1432.46 123.54C1434.88 123.12 1438.56 122.36 1441.98 121.62L1442.2 123.78C1439.06 124.5 1435.66 125.24 1433.18 125.78L1432.46 123.54ZM1435.2 119.48L1436.78 117.9L1437.6 118.12V123.88H1435.2V119.48ZM1458.66 113.7H1461.16V125.8H1458.66V113.7ZM1455.3 117.24V118.32H1464.76V117.24H1455.3ZM1455.3 114.46V115.52H1464.76V114.46H1455.3ZM1452.94 112.62H1467.22V120.16H1452.94V112.62ZM1451.06 121.2H1468.98V123.26H1451.06V121.2ZM1454.36 109.24V110.4H1457.18V109.24H1454.36ZM1452.22 107.8H1459.42V111.82H1452.22V107.8ZM1462.74 109.24V110.4H1465.62V109.24H1462.74ZM1460.62 107.8H1467.86V111.82H1460.62V107.8Z" fill="white"/>
<rect x="1302.5" y="176.5" width="305" height="71" rx="7.5" fill="white"/>
<rect x="1302.5" y="176.5" width="305" height="71" rx="7.5" stroke="#C1C1C1"/>
<path d="M1346.02 193H1361.98C1368.06 193 1373 197.94 1373 204.02V219.98C1373 222.903 1371.84 225.706 1369.77 227.772C1367.71 229.839 1364.9 231 1361.98 231H1346.02C1339.94 231 1335 226.06 1335 219.98V204.02C1335 201.097 1336.16 198.294 1338.23 196.228C1340.29 194.161 1343.1 193 1346.02 193ZM1345.64 196.8C1343.83 196.8 1342.09 197.521 1340.8 198.803C1339.52 200.086 1338.8 201.826 1338.8 203.64V220.36C1338.8 224.141 1341.86 227.2 1345.64 227.2H1362.36C1364.17 227.2 1365.91 226.479 1367.2 225.197C1368.48 223.914 1369.2 222.174 1369.2 220.36V203.64C1369.2 199.859 1366.14 196.8 1362.36 196.8H1345.64ZM1363.98 199.65C1364.6 199.65 1365.21 199.9 1365.65 200.346C1366.1 200.791 1366.35 201.395 1366.35 202.025C1366.35 202.655 1366.1 203.259 1365.65 203.704C1365.21 204.15 1364.6 204.4 1363.98 204.4C1363.35 204.4 1362.74 204.15 1362.3 203.704C1361.85 203.259 1361.6 202.655 1361.6 202.025C1361.6 201.395 1361.85 200.791 1362.3 200.346C1362.74 199.9 1363.35 199.65 1363.98 199.65ZM1354 202.5C1356.52 202.5 1358.94 203.501 1360.72 205.282C1362.5 207.064 1363.5 209.48 1363.5 212C1363.5 214.52 1362.5 216.936 1360.72 218.718C1358.94 220.499 1356.52 221.5 1354 221.5C1351.48 221.5 1349.06 220.499 1347.28 218.718C1345.5 216.936 1344.5 214.52 1344.5 212C1344.5 209.48 1345.5 207.064 1347.28 205.282C1349.06 203.501 1351.48 202.5 1354 202.5ZM1354 206.3C1352.49 206.3 1351.04 206.901 1349.97 207.969C1348.9 209.038 1348.3 210.488 1348.3 212C1348.3 213.512 1348.9 214.962 1349.97 216.031C1351.04 217.099 1352.49 217.7 1354 217.7C1355.51 217.7 1356.96 217.099 1358.03 216.031C1359.1 214.962 1359.7 213.512 1359.7 212C1359.7 210.488 1359.1 209.038 1358.03 207.969C1356.96 206.901 1355.51 206.3 1354 206.3Z" fill="#5B5B5B"/>
<path d="M1393.94 209.26C1393.94 209.513 1393.92 209.773 1393.9 210.04C1393.88 210.307 1393.86 210.547 1393.84 210.76H1393.96C1394.18 210.387 1394.47 210.08 1394.82 209.84C1395.16 209.6 1395.55 209.42 1395.98 209.3C1396.4 209.167 1396.84 209.1 1397.3 209.1C1398.16 209.1 1398.88 209.24 1399.46 209.52C1400.04 209.787 1400.48 210.207 1400.78 210.78C1401.07 211.353 1401.22 212.1 1401.22 213.02V220H1399.48V213.14C1399.48 212.273 1399.28 211.627 1398.9 211.2C1398.51 210.773 1397.9 210.56 1397.08 210.56C1396.28 210.56 1395.65 210.713 1395.2 211.02C1394.74 211.313 1394.42 211.753 1394.22 212.34C1394.03 212.913 1393.94 213.62 1393.94 214.46V220H1392.18V204.8H1393.94V209.26ZM1408.68 209.08C1409.6 209.08 1410.39 209.28 1411.04 209.68C1411.71 210.08 1412.21 210.647 1412.56 211.38C1412.92 212.1 1413.1 212.947 1413.1 213.92V214.98H1405.76C1405.79 216.193 1406.09 217.12 1406.68 217.76C1407.28 218.387 1408.11 218.7 1409.18 218.7C1409.86 218.7 1410.46 218.64 1410.98 218.52C1411.51 218.387 1412.06 218.2 1412.62 217.96V219.5C1412.07 219.74 1411.53 219.913 1411 220.02C1410.47 220.14 1409.83 220.2 1409.1 220.2C1408.09 220.2 1407.19 219.993 1406.4 219.58C1405.63 219.167 1405.02 218.553 1404.58 217.74C1404.15 216.913 1403.94 215.907 1403.94 214.72C1403.94 213.547 1404.13 212.54 1404.52 211.7C1404.92 210.86 1405.47 210.213 1406.18 209.76C1406.9 209.307 1407.73 209.08 1408.68 209.08ZM1408.66 210.52C1407.82 210.52 1407.15 210.793 1406.66 211.34C1406.18 211.873 1405.89 212.62 1405.8 213.58H1411.26C1411.26 212.967 1411.17 212.433 1410.98 211.98C1410.79 211.527 1410.51 211.173 1410.12 210.92C1409.75 210.653 1409.26 210.52 1408.66 210.52ZM1417.98 214.52L1414.28 209.28H1416.28L1419.04 213.32L1421.78 209.28H1423.76L1420.06 214.52L1423.96 220H1421.96L1419.04 215.72L1416.08 220H1414.1L1417.98 214.52ZM1433 217.04C1433 217.733 1432.83 218.313 1432.48 218.78C1432.14 219.247 1431.64 219.6 1431 219.84C1430.36 220.08 1429.6 220.2 1428.72 220.2C1427.98 220.2 1427.33 220.14 1426.78 220.02C1426.25 219.9 1425.78 219.733 1425.36 219.52V217.92C1425.79 218.133 1426.3 218.333 1426.9 218.52C1427.52 218.693 1428.14 218.78 1428.76 218.78C1429.66 218.78 1430.3 218.64 1430.7 218.36C1431.1 218.067 1431.3 217.68 1431.3 217.2C1431.3 216.933 1431.23 216.693 1431.08 216.48C1430.94 216.267 1430.67 216.053 1430.28 215.84C1429.91 215.627 1429.37 215.387 1428.66 215.12C1427.97 214.853 1427.38 214.587 1426.88 214.32C1426.39 214.053 1426.01 213.733 1425.74 213.36C1425.48 212.987 1425.34 212.507 1425.34 211.92C1425.34 211.013 1425.71 210.313 1426.44 209.82C1427.19 209.327 1428.16 209.08 1429.36 209.08C1430.02 209.08 1430.62 209.147 1431.18 209.28C1431.76 209.4 1432.29 209.573 1432.78 209.8L1432.18 211.2C1431.89 211.067 1431.58 210.953 1431.24 210.86C1430.92 210.753 1430.6 210.673 1430.26 210.62C1429.93 210.553 1429.59 210.52 1429.24 210.52C1428.52 210.52 1427.97 210.64 1427.58 210.88C1427.21 211.107 1427.02 211.42 1427.02 211.82C1427.02 212.113 1427.11 212.367 1427.28 212.58C1427.46 212.78 1427.74 212.98 1428.14 213.18C1428.56 213.367 1429.1 213.593 1429.78 213.86C1430.46 214.113 1431.04 214.373 1431.52 214.64C1432 214.907 1432.37 215.233 1432.62 215.62C1432.88 215.993 1433 216.467 1433 217.04ZM1439.89 220.2C1438.95 220.2 1438.1 220.007 1437.35 219.62C1436.62 219.233 1436.04 218.633 1435.61 217.82C1435.2 217.007 1434.99 215.967 1434.99 214.7C1434.99 213.38 1435.21 212.307 1435.65 211.48C1436.09 210.653 1436.69 210.047 1437.43 209.66C1438.19 209.273 1439.05 209.08 1440.01 209.08C1440.56 209.08 1441.09 209.14 1441.59 209.26C1442.1 209.367 1442.51 209.5 1442.83 209.66L1442.29 211.12C1441.97 211 1441.6 210.887 1441.17 210.78C1440.75 210.673 1440.35 210.62 1439.97 210.62C1439.25 210.62 1438.66 210.773 1438.19 211.08C1437.73 211.387 1437.38 211.84 1437.15 212.44C1436.93 213.04 1436.81 213.787 1436.81 214.68C1436.81 215.533 1436.93 216.26 1437.15 216.86C1437.38 217.46 1437.72 217.913 1438.17 218.22C1438.63 218.527 1439.19 218.68 1439.87 218.68C1440.46 218.68 1440.97 218.62 1441.41 218.5C1441.87 218.38 1442.28 218.233 1442.65 218.06V219.62C1442.29 219.807 1441.89 219.947 1441.45 220.04C1441.03 220.147 1440.51 220.2 1439.89 220.2ZM1446.96 209.26C1446.96 209.513 1446.95 209.773 1446.92 210.04C1446.91 210.307 1446.89 210.547 1446.86 210.76H1446.98C1447.21 210.387 1447.5 210.08 1447.84 209.84C1448.19 209.6 1448.58 209.42 1449 209.3C1449.43 209.167 1449.87 209.1 1450.32 209.1C1451.19 209.1 1451.91 209.24 1452.48 209.52C1453.07 209.787 1453.51 210.207 1453.8 210.78C1454.1 211.353 1454.24 212.1 1454.24 213.02V220H1452.5V213.14C1452.5 212.273 1452.31 211.627 1451.92 211.2C1451.54 210.773 1450.93 210.56 1450.1 210.56C1449.3 210.56 1448.68 210.713 1448.22 211.02C1447.77 211.313 1447.44 211.753 1447.24 212.34C1447.06 212.913 1446.96 213.62 1446.96 214.46V220H1445.2V204.8H1446.96V209.26ZM1466.89 214.62C1466.89 215.513 1466.77 216.307 1466.53 217C1466.3 217.68 1465.97 218.26 1465.53 218.74C1465.1 219.22 1464.57 219.587 1463.95 219.84C1463.33 220.08 1462.65 220.2 1461.89 220.2C1461.18 220.2 1460.53 220.08 1459.93 219.84C1459.33 219.587 1458.81 219.22 1458.37 218.74C1457.93 218.26 1457.58 217.68 1457.33 217C1457.09 216.307 1456.97 215.513 1456.97 214.62C1456.97 213.433 1457.17 212.433 1457.57 211.62C1457.97 210.793 1458.54 210.167 1459.29 209.74C1460.03 209.3 1460.92 209.08 1461.95 209.08C1462.92 209.08 1463.77 209.3 1464.51 209.74C1465.25 210.167 1465.83 210.793 1466.25 211.62C1466.67 212.433 1466.89 213.433 1466.89 214.62ZM1458.79 214.62C1458.79 215.46 1458.89 216.193 1459.11 216.82C1459.33 217.433 1459.68 217.907 1460.15 218.24C1460.61 218.573 1461.21 218.74 1461.93 218.74C1462.65 218.74 1463.24 218.573 1463.71 218.24C1464.17 217.907 1464.51 217.433 1464.73 216.82C1464.95 216.193 1465.07 215.46 1465.07 214.62C1465.07 213.767 1464.95 213.04 1464.73 212.44C1464.5 211.84 1464.15 211.38 1463.69 211.06C1463.23 210.727 1462.64 210.56 1461.91 210.56C1460.81 210.56 1460.02 210.92 1459.53 211.64C1459.03 212.36 1458.79 213.353 1458.79 214.62ZM1479 214.62C1479 215.513 1478.88 216.307 1478.64 217C1478.41 217.68 1478.08 218.26 1477.64 218.74C1477.21 219.22 1476.68 219.587 1476.06 219.84C1475.44 220.08 1474.76 220.2 1474 220.2C1473.29 220.2 1472.64 220.08 1472.04 219.84C1471.44 219.587 1470.92 219.22 1470.48 218.74C1470.04 218.26 1469.69 217.68 1469.44 217C1469.2 216.307 1469.08 215.513 1469.08 214.62C1469.08 213.433 1469.28 212.433 1469.68 211.62C1470.08 210.793 1470.65 210.167 1471.4 209.74C1472.14 209.3 1473.03 209.08 1474.06 209.08C1475.03 209.08 1475.88 209.3 1476.62 209.74C1477.36 210.167 1477.94 210.793 1478.36 211.62C1478.78 212.433 1479 213.433 1479 214.62ZM1470.9 214.62C1470.9 215.46 1471 216.193 1471.22 216.82C1471.44 217.433 1471.79 217.907 1472.26 218.24C1472.72 218.573 1473.32 218.74 1474.04 218.74C1474.76 218.74 1475.35 218.573 1475.82 218.24C1476.28 217.907 1476.62 217.433 1476.84 216.82C1477.06 216.193 1477.18 215.46 1477.18 214.62C1477.18 213.767 1477.06 213.04 1476.84 212.44C1476.61 211.84 1476.26 211.38 1475.8 211.06C1475.34 210.727 1474.75 210.56 1474.02 210.56C1472.92 210.56 1472.13 210.92 1471.64 211.64C1471.14 212.36 1470.9 213.353 1470.9 214.62ZM1483.55 220H1481.79V204.8H1483.55V220ZM1494.16 223.08H1485.2V221.8H1494.16V223.08ZM1499.63 220.2C1498.3 220.2 1497.23 219.74 1496.43 218.82C1495.63 217.887 1495.23 216.5 1495.23 214.66C1495.23 212.82 1495.63 211.433 1496.43 210.5C1497.24 209.553 1498.32 209.08 1499.65 209.08C1500.21 209.08 1500.7 209.153 1501.11 209.3C1501.52 209.433 1501.88 209.62 1502.19 209.86C1502.5 210.1 1502.76 210.367 1502.97 210.66H1503.09C1503.08 210.487 1503.05 210.233 1503.01 209.9C1502.98 209.553 1502.97 209.28 1502.97 209.08V204.8H1504.73V220H1503.31L1503.05 218.56H1502.97C1502.76 218.867 1502.5 219.147 1502.19 219.4C1501.88 219.64 1501.52 219.833 1501.09 219.98C1500.68 220.127 1500.19 220.2 1499.63 220.2ZM1499.91 218.74C1501.04 218.74 1501.84 218.433 1502.29 217.82C1502.76 217.193 1502.99 216.253 1502.99 215V214.68C1502.99 213.347 1502.77 212.327 1502.33 211.62C1501.89 210.9 1501.08 210.54 1499.89 210.54C1498.94 210.54 1498.23 210.92 1497.75 211.68C1497.28 212.427 1497.05 213.433 1497.05 214.7C1497.05 215.98 1497.28 216.973 1497.75 217.68C1498.23 218.387 1498.95 218.74 1499.91 218.74ZM1512.27 209.08C1513.19 209.08 1513.98 209.28 1514.63 209.68C1515.3 210.08 1515.81 210.647 1516.15 211.38C1516.51 212.1 1516.69 212.947 1516.69 213.92V214.98H1509.35C1509.38 216.193 1509.69 217.12 1510.27 217.76C1510.87 218.387 1511.71 218.7 1512.77 218.7C1513.45 218.7 1514.05 218.64 1514.57 218.52C1515.11 218.387 1515.65 218.2 1516.21 217.96V219.5C1515.67 219.74 1515.13 219.913 1514.59 220.02C1514.06 220.14 1513.43 220.2 1512.69 220.2C1511.68 220.2 1510.78 219.993 1509.99 219.58C1509.22 219.167 1508.61 218.553 1508.17 217.74C1507.75 216.913 1507.53 215.907 1507.53 214.72C1507.53 213.547 1507.73 212.54 1508.11 211.7C1508.51 210.86 1509.07 210.213 1509.77 209.76C1510.49 209.307 1511.33 209.08 1512.27 209.08ZM1512.25 210.52C1511.41 210.52 1510.75 210.793 1510.25 211.34C1509.77 211.873 1509.49 212.62 1509.39 213.58H1514.85C1514.85 212.967 1514.76 212.433 1514.57 211.98C1514.39 211.527 1514.1 211.173 1513.71 210.92C1513.34 210.653 1512.85 210.52 1512.25 210.52ZM1531.18 209.08C1532.4 209.08 1533.3 209.393 1533.9 210.02C1534.5 210.633 1534.8 211.633 1534.8 213.02V220H1533.06V213.1C1533.06 212.26 1532.88 211.627 1532.52 211.2C1532.18 210.773 1531.63 210.56 1530.88 210.56C1529.84 210.56 1529.1 210.86 1528.64 211.46C1528.2 212.06 1527.98 212.933 1527.98 214.08V220H1526.24V213.1C1526.24 212.54 1526.16 212.073 1526 211.7C1525.84 211.313 1525.6 211.027 1525.28 210.84C1524.96 210.653 1524.55 210.56 1524.04 210.56C1523.32 210.56 1522.76 210.713 1522.34 211.02C1521.93 211.313 1521.63 211.747 1521.44 212.32C1521.27 212.893 1521.18 213.6 1521.18 214.44V220H1519.42V209.28H1520.84L1521.1 210.74H1521.2C1521.43 210.367 1521.7 210.06 1522.02 209.82C1522.36 209.567 1522.72 209.38 1523.12 209.26C1523.52 209.14 1523.94 209.08 1524.36 209.08C1525.19 209.08 1525.88 209.227 1526.42 209.52C1526.98 209.813 1527.39 210.267 1527.64 210.88H1527.74C1528.1 210.267 1528.59 209.813 1529.2 209.52C1529.83 209.227 1530.49 209.08 1531.18 209.08ZM1547.43 214.62C1547.43 215.513 1547.31 216.307 1547.07 217C1546.85 217.68 1546.51 218.26 1546.07 218.74C1545.65 219.22 1545.12 219.587 1544.49 219.84C1543.88 220.08 1543.19 220.2 1542.43 220.2C1541.73 220.2 1541.07 220.08 1540.47 219.84C1539.87 219.587 1539.35 219.22 1538.91 218.74C1538.47 218.26 1538.13 217.68 1537.87 217C1537.63 216.307 1537.51 215.513 1537.51 214.62C1537.51 213.433 1537.71 212.433 1538.11 211.62C1538.51 210.793 1539.09 210.167 1539.83 209.74C1540.58 209.3 1541.47 209.08 1542.49 209.08C1543.47 209.08 1544.32 209.3 1545.05 209.74C1545.8 210.167 1546.38 210.793 1546.79 211.62C1547.22 212.433 1547.43 213.433 1547.43 214.62ZM1539.33 214.62C1539.33 215.46 1539.44 216.193 1539.65 216.82C1539.88 217.433 1540.23 217.907 1540.69 218.24C1541.16 218.573 1541.75 218.74 1542.47 218.74C1543.19 218.74 1543.79 218.573 1544.25 218.24C1544.72 217.907 1545.06 217.433 1545.27 216.82C1545.5 216.193 1545.61 215.46 1545.61 214.62C1545.61 213.767 1545.5 213.04 1545.27 212.44C1545.05 211.84 1544.7 211.38 1544.23 211.06C1543.78 210.727 1543.19 210.56 1542.45 210.56C1541.36 210.56 1540.57 210.92 1540.07 211.64C1539.58 212.36 1539.33 213.353 1539.33 214.62Z" fill="#3B3B3B"/>
<rect x="1302.5" y="272.5" width="305" height="71" rx="7.5" fill="white"/>
<rect x="1302.5" y="272.5" width="305" height="71" rx="7.5" stroke="#C1C1C1"/>
<path d="M1374 308.05C1374 296.982 1365.04 288 1354 288C1342.96 288 1334 296.982 1334 308.05C1334 317.754 1340.88 325.835 1350 327.699V314.065H1346V308.05H1350V303.038C1350 299.168 1353.14 296.02 1357 296.02H1362V302.035H1358C1356.9 302.035 1356 302.937 1356 304.04V308.05H1362V314.065H1356V328C1366.1 326.997 1374 318.456 1374 308.05Z" fill="#5B5B5B"/>
<path d="M1393.72 305.26C1393.72 305.513 1393.71 305.773 1393.68 306.04C1393.67 306.307 1393.65 306.547 1393.62 306.76H1393.74C1393.97 306.387 1394.26 306.08 1394.6 305.84C1394.95 305.6 1395.34 305.42 1395.76 305.3C1396.19 305.167 1396.63 305.1 1397.08 305.1C1397.95 305.1 1398.67 305.24 1399.24 305.52C1399.83 305.787 1400.27 306.207 1400.56 306.78C1400.86 307.353 1401 308.1 1401 309.02V316H1399.26V309.14C1399.26 308.273 1399.07 307.627 1398.68 307.2C1398.3 306.773 1397.69 306.56 1396.86 306.56C1396.06 306.56 1395.44 306.713 1394.98 307.02C1394.53 307.313 1394.2 307.753 1394 308.34C1393.82 308.913 1393.72 309.62 1393.72 310.46V316H1391.96V300.8H1393.72V305.26ZM1408.47 305.08C1409.39 305.08 1410.17 305.28 1410.83 305.68C1411.49 306.08 1412 306.647 1412.35 307.38C1412.71 308.1 1412.89 308.947 1412.89 309.92V310.98H1405.55C1405.57 312.193 1405.88 313.12 1406.47 313.76C1407.07 314.387 1407.9 314.7 1408.97 314.7C1409.65 314.7 1410.25 314.64 1410.77 314.52C1411.3 314.387 1411.85 314.2 1412.41 313.96V315.5C1411.86 315.74 1411.32 315.913 1410.79 316.02C1410.25 316.14 1409.62 316.2 1408.89 316.2C1407.87 316.2 1406.97 315.993 1406.19 315.58C1405.41 315.167 1404.81 314.553 1404.37 313.74C1403.94 312.913 1403.73 311.907 1403.73 310.72C1403.73 309.547 1403.92 308.54 1404.31 307.7C1404.71 306.86 1405.26 306.213 1405.97 305.76C1406.69 305.307 1407.52 305.08 1408.47 305.08ZM1408.45 306.52C1407.61 306.52 1406.94 306.793 1406.45 307.34C1405.97 307.873 1405.68 308.62 1405.59 309.58H1411.05C1411.05 308.967 1410.95 308.433 1410.77 307.98C1410.58 307.527 1410.29 307.173 1409.91 306.92C1409.53 306.653 1409.05 306.52 1408.45 306.52ZM1417.77 310.52L1414.07 305.28H1416.07L1418.83 309.32L1421.57 305.28H1423.55L1419.85 310.52L1423.75 316H1421.75L1418.83 311.72L1415.87 316H1413.89L1417.77 310.52ZM1432.79 313.04C1432.79 313.733 1432.62 314.313 1432.27 314.78C1431.92 315.247 1431.43 315.6 1430.79 315.84C1430.15 316.08 1429.39 316.2 1428.51 316.2C1427.76 316.2 1427.12 316.14 1426.57 316.02C1426.04 315.9 1425.56 315.733 1425.15 315.52V313.92C1425.58 314.133 1426.09 314.333 1426.69 314.52C1427.3 314.693 1427.92 314.78 1428.55 314.78C1429.44 314.78 1430.09 314.64 1430.49 314.36C1430.89 314.067 1431.09 313.68 1431.09 313.2C1431.09 312.933 1431.02 312.693 1430.87 312.48C1430.72 312.267 1430.46 312.053 1430.07 311.84C1429.7 311.627 1429.16 311.387 1428.45 311.12C1427.76 310.853 1427.16 310.587 1426.67 310.32C1426.18 310.053 1425.8 309.733 1425.53 309.36C1425.26 308.987 1425.13 308.507 1425.13 307.92C1425.13 307.013 1425.5 306.313 1426.23 305.82C1426.98 305.327 1427.95 305.08 1429.15 305.08C1429.8 305.08 1430.41 305.147 1430.97 305.28C1431.54 305.4 1432.08 305.573 1432.57 305.8L1431.97 307.2C1431.68 307.067 1431.36 306.953 1431.03 306.86C1430.71 306.753 1430.38 306.673 1430.05 306.62C1429.72 306.553 1429.38 306.52 1429.03 306.52C1428.31 306.52 1427.76 306.64 1427.37 306.88C1427 307.107 1426.81 307.42 1426.81 307.82C1426.81 308.113 1426.9 308.367 1427.07 308.58C1427.24 308.78 1427.53 308.98 1427.93 309.18C1428.34 309.367 1428.89 309.593 1429.57 309.86C1430.25 310.113 1430.83 310.373 1431.31 310.64C1431.79 310.907 1432.16 311.233 1432.41 311.62C1432.66 311.993 1432.79 312.467 1432.79 313.04ZM1439.68 316.2C1438.73 316.2 1437.89 316.007 1437.14 315.62C1436.41 315.233 1435.83 314.633 1435.4 313.82C1434.99 313.007 1434.78 311.967 1434.78 310.7C1434.78 309.38 1435 308.307 1435.44 307.48C1435.88 306.653 1436.47 306.047 1437.22 305.66C1437.98 305.273 1438.84 305.08 1439.8 305.08C1440.35 305.08 1440.87 305.14 1441.38 305.26C1441.89 305.367 1442.3 305.5 1442.62 305.66L1442.08 307.12C1441.76 307 1441.39 306.887 1440.96 306.78C1440.53 306.673 1440.13 306.62 1439.76 306.62C1439.04 306.62 1438.45 306.773 1437.98 307.08C1437.51 307.387 1437.17 307.84 1436.94 308.44C1436.71 309.04 1436.6 309.787 1436.6 310.68C1436.6 311.533 1436.71 312.26 1436.94 312.86C1437.17 313.46 1437.51 313.913 1437.96 314.22C1438.41 314.527 1438.98 314.68 1439.66 314.68C1440.25 314.68 1440.76 314.62 1441.2 314.5C1441.65 314.38 1442.07 314.233 1442.44 314.06V315.62C1442.08 315.807 1441.68 315.947 1441.24 316.04C1440.81 316.147 1440.29 316.2 1439.68 316.2ZM1446.75 305.26C1446.75 305.513 1446.74 305.773 1446.71 306.04C1446.7 306.307 1446.68 306.547 1446.65 306.76H1446.77C1447 306.387 1447.28 306.08 1447.63 305.84C1447.98 305.6 1448.36 305.42 1448.79 305.3C1449.22 305.167 1449.66 305.1 1450.11 305.1C1450.98 305.1 1451.7 305.24 1452.27 305.52C1452.86 305.787 1453.3 306.207 1453.59 306.78C1453.88 307.353 1454.03 308.1 1454.03 309.02V316H1452.29V309.14C1452.29 308.273 1452.1 307.627 1451.71 307.2C1451.32 306.773 1450.72 306.56 1449.89 306.56C1449.09 306.56 1448.46 306.713 1448.01 307.02C1447.56 307.313 1447.23 307.753 1447.03 308.34C1446.84 308.913 1446.75 309.62 1446.75 310.46V316H1444.99V300.8H1446.75V305.26ZM1466.67 310.62C1466.67 311.513 1466.55 312.307 1466.31 313C1466.09 313.68 1465.75 314.26 1465.31 314.74C1464.89 315.22 1464.36 315.587 1463.73 315.84C1463.12 316.08 1462.43 316.2 1461.67 316.2C1460.97 316.2 1460.31 316.08 1459.71 315.84C1459.11 315.587 1458.59 315.22 1458.15 314.74C1457.71 314.26 1457.37 313.68 1457.11 313C1456.87 312.307 1456.75 311.513 1456.75 310.62C1456.75 309.433 1456.95 308.433 1457.35 307.62C1457.75 306.793 1458.33 306.167 1459.07 305.74C1459.82 305.3 1460.71 305.08 1461.73 305.08C1462.71 305.08 1463.56 305.3 1464.29 305.74C1465.04 306.167 1465.62 306.793 1466.03 307.62C1466.46 308.433 1466.67 309.433 1466.67 310.62ZM1458.57 310.62C1458.57 311.46 1458.68 312.193 1458.89 312.82C1459.12 313.433 1459.47 313.907 1459.93 314.24C1460.4 314.573 1460.99 314.74 1461.71 314.74C1462.43 314.74 1463.03 314.573 1463.49 314.24C1463.96 313.907 1464.3 313.433 1464.51 312.82C1464.74 312.193 1464.85 311.46 1464.85 310.62C1464.85 309.767 1464.74 309.04 1464.51 308.44C1464.29 307.84 1463.94 307.38 1463.47 307.06C1463.02 306.727 1462.43 306.56 1461.69 306.56C1460.6 306.56 1459.81 306.92 1459.31 307.64C1458.82 308.36 1458.57 309.353 1458.57 310.62ZM1478.78 310.62C1478.78 311.513 1478.66 312.307 1478.42 313C1478.2 313.68 1477.86 314.26 1477.42 314.74C1477 315.22 1476.47 315.587 1475.84 315.84C1475.23 316.08 1474.54 316.2 1473.78 316.2C1473.08 316.2 1472.42 316.08 1471.82 315.84C1471.22 315.587 1470.7 315.22 1470.26 314.74C1469.82 314.26 1469.48 313.68 1469.22 313C1468.98 312.307 1468.86 311.513 1468.86 310.62C1468.86 309.433 1469.06 308.433 1469.46 307.62C1469.86 306.793 1470.44 306.167 1471.18 305.74C1471.93 305.3 1472.82 305.08 1473.84 305.08C1474.82 305.08 1475.67 305.3 1476.4 305.74C1477.15 306.167 1477.73 306.793 1478.14 307.62C1478.57 308.433 1478.78 309.433 1478.78 310.62ZM1470.68 310.62C1470.68 311.46 1470.79 312.193 1471 312.82C1471.23 313.433 1471.58 313.907 1472.04 314.24C1472.51 314.573 1473.1 314.74 1473.82 314.74C1474.54 314.74 1475.14 314.573 1475.6 314.24C1476.07 313.907 1476.41 313.433 1476.62 312.82C1476.85 312.193 1476.96 311.46 1476.96 310.62C1476.96 309.767 1476.85 309.04 1476.62 308.44C1476.4 307.84 1476.05 307.38 1475.58 307.06C1475.13 306.727 1474.54 306.56 1473.8 306.56C1472.71 306.56 1471.92 306.92 1471.42 307.64C1470.93 308.36 1470.68 309.353 1470.68 310.62ZM1483.33 316H1481.57V300.8H1483.33V316ZM1491.49 316H1489.69V303.3H1485.23V301.72H1495.93V303.3H1491.49V316ZM1514.48 301.72L1510.68 316H1508.86L1506.08 306.64C1506 306.36 1505.92 306.073 1505.84 305.78C1505.76 305.487 1505.69 305.207 1505.62 304.94C1505.56 304.673 1505.5 304.447 1505.44 304.26C1505.4 304.06 1505.38 303.913 1505.36 303.82C1505.35 303.913 1505.32 304.06 1505.28 304.26C1505.26 304.447 1505.21 304.673 1505.14 304.94C1505.08 305.207 1505 305.493 1504.92 305.8C1504.86 306.093 1504.78 306.393 1504.68 306.7L1501.98 316H1500.16L1496.38 301.72H1498.26L1500.48 310.44C1500.56 310.747 1500.64 311.053 1500.7 311.36C1500.77 311.653 1500.83 311.947 1500.88 312.24C1500.95 312.52 1501 312.793 1501.04 313.06C1501.08 313.327 1501.12 313.587 1501.16 313.84C1501.2 313.573 1501.24 313.3 1501.28 313.02C1501.34 312.74 1501.4 312.453 1501.46 312.16C1501.53 311.853 1501.6 311.547 1501.68 311.24C1501.76 310.933 1501.84 310.633 1501.92 310.34L1504.44 301.72H1506.3L1508.92 310.4C1509.02 310.707 1509.1 311.02 1509.18 311.34C1509.26 311.647 1509.34 311.947 1509.4 312.24C1509.47 312.533 1509.52 312.82 1509.56 313.1C1509.62 313.367 1509.66 313.613 1509.7 313.84C1509.74 313.507 1509.8 313.16 1509.86 312.8C1509.93 312.427 1510.01 312.04 1510.1 311.64C1510.2 311.24 1510.3 310.833 1510.4 310.42L1512.6 301.72H1514.48Z" fill="#3B3B3B"/>
<ellipse cx="154.5" cy="393" rx="120.5" ry="121" fill="#828282" fill-opacity="0.11"/>
<circle cx="1856" cy="308" r="47" fill="#828282" fill-opacity="0.11"/>
<circle cx="1244.5" cy="417.5" r="24.5" fill="#828282" fill-opacity="0.11"/>
<circle cx="695.5" cy="87.5" r="24.5" fill="#828282" fill-opacity="0.11"/>
</g>
<defs>
<clipPath id="clip0_2221_22820">
<rect width="1920" height="424" fill="white"/>
</clipPath>
</defs>
</svg>
